%TF.GenerationSoftware,KiCad,Pcbnew,9.0.9*%
%TF.CreationDate,2026-06-28T10:34:42+05:30*%
%TF.ProjectId,MCU_Breakout,4d43555f-4272-4656-916b-6f75742e6b69,rev?*%
%TF.SameCoordinates,Original*%
%TF.FileFunction,Copper,L1,Top*%
%TF.FilePolarity,Positive*%
%FSLAX46Y46*%
G04 Gerber Fmt 4.6, Leading zero omitted, Abs format (unit mm)*
G04 Created by KiCad (PCBNEW 9.0.9) date 2026-06-28 10:34:42*
%MOMM*%
%LPD*%
G01*
G04 APERTURE LIST*
G04 Aperture macros list*
%AMRoundRect*
0 Rectangle with rounded corners*
0 $1 Rounding radius*
0 $2 $3 $4 $5 $6 $7 $8 $9 X,Y pos of 4 corners*
0 Add a 4 corners polygon primitive as box body*
4,1,4,$2,$3,$4,$5,$6,$7,$8,$9,$2,$3,0*
0 Add four circle primitives for the rounded corners*
1,1,$1+$1,$2,$3*
1,1,$1+$1,$4,$5*
1,1,$1+$1,$6,$7*
1,1,$1+$1,$8,$9*
0 Add four rect primitives between the rounded corners*
20,1,$1+$1,$2,$3,$4,$5,0*
20,1,$1+$1,$4,$5,$6,$7,0*
20,1,$1+$1,$6,$7,$8,$9,0*
20,1,$1+$1,$8,$9,$2,$3,0*%
G04 Aperture macros list end*
%TA.AperFunction,ComponentPad*%
%ADD10C,1.905000*%
%TD*%
%TA.AperFunction,SMDPad,CuDef*%
%ADD11R,2.000000X1.600000*%
%TD*%
%TA.AperFunction,ComponentPad*%
%ADD12C,1.700000*%
%TD*%
%TA.AperFunction,ComponentPad*%
%ADD13R,1.700000X1.700000*%
%TD*%
%TA.AperFunction,ComponentPad*%
%ADD14C,1.600000*%
%TD*%
%TA.AperFunction,ComponentPad*%
%ADD15R,1.500000X1.500000*%
%TD*%
%TA.AperFunction,ComponentPad*%
%ADD16R,1.800000X1.800000*%
%TD*%
%TA.AperFunction,ComponentPad*%
%ADD17C,1.800000*%
%TD*%
%TA.AperFunction,ComponentPad*%
%ADD18C,1.400000*%
%TD*%
%TA.AperFunction,ComponentPad*%
%ADD19C,1.530000*%
%TD*%
%TA.AperFunction,SMDPad,CuDef*%
%ADD20RoundRect,0.375000X0.375000X-0.625000X0.375000X0.625000X-0.375000X0.625000X-0.375000X-0.625000X0*%
%TD*%
%TA.AperFunction,SMDPad,CuDef*%
%ADD21RoundRect,0.500000X1.400000X-0.500000X1.400000X0.500000X-1.400000X0.500000X-1.400000X-0.500000X0*%
%TD*%
%TA.AperFunction,ComponentPad*%
%ADD22R,1.530000X1.530000*%
%TD*%
%TA.AperFunction,ViaPad*%
%ADD23C,0.600000*%
%TD*%
%TA.AperFunction,Conductor*%
%ADD24C,0.200000*%
%TD*%
G04 APERTURE END LIST*
D10*
%TO.P,U2,XDA,XDA*%
%TO.N,unconnected-(U2-PadXDA)*%
X177230000Y-137420000D03*
%TO.P,U2,XCL,XCL*%
%TO.N,unconnected-(U2-PadXCL)*%
X174690000Y-137420000D03*
%TO.P,U2,VCC,VCC*%
%TO.N,/3.3V*%
X187390000Y-137420000D03*
%TO.P,U2,SDA,SDA*%
%TO.N,/SDA*%
X179770000Y-137420000D03*
%TO.P,U2,SCL,SCL*%
%TO.N,/SCL*%
X182310000Y-137420000D03*
%TO.P,U2,INT,INT*%
%TO.N,unconnected-(U2-PadINT)*%
X169610000Y-137420000D03*
%TO.P,U2,GND,GND*%
%TO.N,GND*%
X184850000Y-137420000D03*
%TO.P,U2,AD0,AD0*%
%TO.N,unconnected-(U2-PadAD0)*%
X172150000Y-137420000D03*
%TD*%
D11*
%TO.P,C2,1*%
%TO.N,/3.3V*%
X156500000Y-109250000D03*
%TO.P,C2,2*%
%TO.N,GND*%
X162500000Y-109250000D03*
%TD*%
%TO.P,C1,1*%
%TO.N,/5V*%
X156500000Y-89250000D03*
%TO.P,C1,2*%
%TO.N,GND*%
X162500000Y-89250000D03*
%TD*%
D12*
%TO.P,J6,2,Pin_2*%
%TO.N,GND*%
X192500000Y-149750000D03*
D13*
%TO.P,J6,1,Pin_1*%
%TO.N,/5V*%
X192500000Y-147210000D03*
%TD*%
D14*
%TO.P,SW2,3,C*%
%TO.N,unconnected-(SW2-C-Pad3)*%
X162790000Y-140250000D03*
%TO.P,SW2,2,B*%
%TO.N,/5V*%
X157710000Y-140250000D03*
D15*
%TO.P,SW2,1,A*%
%TO.N,/switch_signal*%
X160250000Y-140250000D03*
%TD*%
D14*
%TO.P,SW3,3,C*%
%TO.N,unconnected-(SW3-C-Pad3)*%
X198290000Y-140500000D03*
%TO.P,SW3,2,B*%
%TO.N,/5V*%
X193210000Y-140500000D03*
D15*
%TO.P,SW3,1,A*%
%TO.N,/switch_signal*%
X195750000Y-140500000D03*
%TD*%
D16*
%TO.P,D4,1,K*%
%TO.N,GND*%
X194730000Y-117500000D03*
D17*
%TO.P,D4,2,A*%
%TO.N,Net-(D4-A)*%
X197270000Y-117500000D03*
%TD*%
D13*
%TO.P,J7,1,Pin_1*%
%TO.N,/switch_signal*%
X164250000Y-150025000D03*
D12*
%TO.P,J7,2,Pin_2*%
%TO.N,GND*%
X164250000Y-147485000D03*
%TD*%
D13*
%TO.P,J5,1,Pin_1*%
%TO.N,/S4*%
X199290000Y-132000000D03*
D12*
%TO.P,J5,2,Pin_2*%
%TO.N,/5V*%
X196750000Y-132000000D03*
%TO.P,J5,3,Pin_3*%
%TO.N,GND*%
X194210000Y-132000000D03*
%TD*%
D15*
%TO.P,SW1,1,A*%
%TO.N,/switch_signal*%
X196500000Y-111250000D03*
D14*
%TO.P,SW1,2,B*%
%TO.N,/5V*%
X199040000Y-111250000D03*
%TO.P,SW1,3,C*%
%TO.N,unconnected-(SW1-C-Pad3)*%
X193960000Y-111250000D03*
%TD*%
D18*
%TO.P,R1,1*%
%TO.N,/LED1*%
X162750000Y-68750000D03*
%TO.P,R1,2*%
%TO.N,Net-(D1-A)*%
X157670000Y-68750000D03*
%TD*%
D19*
%TO.P,U3,1,VCC*%
%TO.N,/5V*%
X181810000Y-62625000D03*
%TO.P,U3,2,TRIG*%
%TO.N,/TRIG*%
X179270000Y-62625000D03*
%TO.P,U3,3,ECHO*%
%TO.N,Net-(U3-ECHO)*%
X176730000Y-62625000D03*
%TO.P,U3,4,GND*%
%TO.N,GND*%
X174190000Y-62625000D03*
%TD*%
D16*
%TO.P,D1,1,K*%
%TO.N,GND*%
X158500000Y-74500000D03*
D17*
%TO.P,D1,2,A*%
%TO.N,Net-(D1-A)*%
X161040000Y-74500000D03*
%TD*%
D13*
%TO.P,J3,1,Pin_1*%
%TO.N,/S2*%
X199000000Y-81250000D03*
D12*
%TO.P,J3,2,Pin_2*%
%TO.N,/5V*%
X196460000Y-81250000D03*
%TO.P,J3,3,Pin_3*%
%TO.N,GND*%
X193920000Y-81250000D03*
%TD*%
D18*
%TO.P,R5,1*%
%TO.N,/ECHO*%
X171040000Y-62250000D03*
%TO.P,R5,2*%
%TO.N,Net-(U3-ECHO)*%
X165960000Y-62250000D03*
%TD*%
%TO.P,R6,1*%
%TO.N,GND*%
X190040000Y-62500000D03*
%TO.P,R6,2*%
%TO.N,/ECHO*%
X184960000Y-62500000D03*
%TD*%
%TO.P,R2,1*%
%TO.N,/LED2*%
X198290000Y-69000000D03*
%TO.P,R2,2*%
%TO.N,Net-(D2-A)*%
X193210000Y-69000000D03*
%TD*%
D13*
%TO.P,J2,1,Pin_1*%
%TO.N,/S1*%
X162000000Y-82250000D03*
D12*
%TO.P,J2,2,Pin_2*%
%TO.N,/5V*%
X159460000Y-82250000D03*
%TO.P,J2,3,Pin_3*%
%TO.N,GND*%
X156920000Y-82250000D03*
%TD*%
D18*
%TO.P,R4,1*%
%TO.N,/LED4*%
X198540000Y-125250000D03*
%TO.P,R4,2*%
%TO.N,Net-(D4-A)*%
X193460000Y-125250000D03*
%TD*%
D16*
%TO.P,D2,1,K*%
%TO.N,GND*%
X193710000Y-74000000D03*
D17*
%TO.P,D2,2,A*%
%TO.N,Net-(D2-A)*%
X196250000Y-74000000D03*
%TD*%
D16*
%TO.P,D3,1,K*%
%TO.N,GND*%
X158460000Y-117750000D03*
D17*
%TO.P,D3,2,A*%
%TO.N,Net-(D3-A)*%
X161000000Y-117750000D03*
%TD*%
D20*
%TO.P,U4,1,GND*%
%TO.N,GND*%
X156950000Y-102650000D03*
%TO.P,U4,2,VO*%
%TO.N,/3.3V*%
X159250000Y-102650000D03*
D21*
X159250000Y-96350000D03*
D20*
%TO.P,U4,3,VI*%
%TO.N,/5V*%
X161550000Y-102650000D03*
%TD*%
D18*
%TO.P,R3,1*%
%TO.N,/LED3*%
X162290000Y-126000000D03*
%TO.P,R3,2*%
%TO.N,Net-(D3-A)*%
X157210000Y-126000000D03*
%TD*%
D13*
%TO.P,J4,1,Pin_1*%
%TO.N,/S3*%
X156960000Y-132500000D03*
D12*
%TO.P,J4,2,Pin_2*%
%TO.N,/5V*%
X159500000Y-132500000D03*
%TO.P,J4,3,Pin_3*%
%TO.N,GND*%
X162040000Y-132500000D03*
%TD*%
D22*
%TO.P,U5,J1_1,3V3*%
%TO.N,/3.3V*%
X166640000Y-73060000D03*
D19*
%TO.P,U5,J1_2,GPIO0*%
%TO.N,unconnected-(U5-GPIO0-PadJ1_2)*%
X166640000Y-75600000D03*
%TO.P,U5,J1_3,GPIO1*%
%TO.N,/S1*%
X166640000Y-78140000D03*
%TO.P,U5,J1_4,GPIO2*%
%TO.N,/S2*%
X166640000Y-80680000D03*
%TO.P,U5,J1_5,GPIO3*%
%TO.N,/S3*%
X166640000Y-83220000D03*
%TO.P,U5,J1_6,GPIO4*%
%TO.N,/S4*%
X166640000Y-85760000D03*
%TO.P,U5,J1_7,GPIO5*%
%TO.N,/TRIG*%
X166640000Y-88300000D03*
%TO.P,U5,J1_8,GPIO6*%
%TO.N,/ECHO*%
X166640000Y-90840000D03*
%TO.P,U5,J1_9,GPIO7*%
%TO.N,unconnected-(U5-GPIO7-PadJ1_9)*%
X166640000Y-93380000D03*
%TO.P,U5,J1_10,GPIO8*%
%TO.N,/SDA*%
X166640000Y-95920000D03*
%TO.P,U5,J1_11,GPIO9*%
%TO.N,/SCL*%
X166640000Y-98460000D03*
%TO.P,U5,J1_12,GPIO10*%
%TO.N,unconnected-(U5-GPIO10-PadJ1_12)*%
X166640000Y-101000000D03*
%TO.P,U5,J1_13,GPIO11*%
%TO.N,/LED1*%
X166640000Y-103540000D03*
%TO.P,U5,J1_14,GPIO12*%
%TO.N,/LED2*%
X166640000Y-106080000D03*
%TO.P,U5,J1_15,GPIO13*%
%TO.N,/LED3*%
X166640000Y-108620000D03*
%TO.P,U5,J1_16,GPIO14*%
%TO.N,/LED4*%
X166640000Y-111160000D03*
%TO.P,U5,J1_17,GPIO15*%
%TO.N,unconnected-(U5-GPIO15-PadJ1_17)*%
X166640000Y-113700000D03*
%TO.P,U5,J1_18,GPIO16*%
%TO.N,unconnected-(U5-GPIO16-PadJ1_18)*%
X166640000Y-116240000D03*
%TO.P,U5,J1_19,GPIO17*%
%TO.N,unconnected-(U5-GPIO17-PadJ1_19)*%
X166640000Y-118780000D03*
%TO.P,U5,J1_20,GPIO18*%
%TO.N,unconnected-(U5-GPIO18-PadJ1_20)*%
X166640000Y-121320000D03*
%TO.P,U5,J1_21,5V0*%
%TO.N,unconnected-(U5-5V0-PadJ1_21)*%
X166640000Y-123860000D03*
%TO.P,U5,J1_22,GND_J1_22*%
%TO.N,GND*%
X166640000Y-126400000D03*
%TO.P,U5,J3_1,GND_J3_1*%
%TO.N,unconnected-(U5-GND_J3_1-PadJ3_1)*%
X189500000Y-73060000D03*
%TO.P,U5,J3_2,RST*%
%TO.N,unconnected-(U5-RST-PadJ3_2)*%
X189500000Y-75600000D03*
%TO.P,U5,J3_3,GPIO46*%
%TO.N,/GPIO46*%
X189500000Y-78140000D03*
%TO.P,U5,J3_4,GPIO45*%
%TO.N,/GPIO45*%
X189500000Y-80680000D03*
%TO.P,U5,J3_5,U0RXD*%
%TO.N,unconnected-(U5-U0RXD-PadJ3_5)*%
X189500000Y-83220000D03*
%TO.P,U5,J3_6,U0TXD*%
%TO.N,unconnected-(U5-U0TXD-PadJ3_6)*%
X189500000Y-85760000D03*
%TO.P,U5,J3_7,GPIO42*%
%TO.N,/GPIO42*%
X189500000Y-88300000D03*
%TO.P,U5,J3_8,GPIO41*%
%TO.N,/GPIO41*%
X189500000Y-90840000D03*
%TO.P,U5,J3_9,GPIO40*%
%TO.N,/GPIO40*%
X189500000Y-93380000D03*
%TO.P,U5,J3_10,GPIO39*%
%TO.N,/GPIO39*%
X189500000Y-95920000D03*
%TO.P,U5,J3_11,GPIO38*%
%TO.N,unconnected-(U5-GPIO38-PadJ3_11)*%
X189500000Y-98460000D03*
%TO.P,U5,J3_12,GPIO37*%
%TO.N,unconnected-(U5-GPIO37-PadJ3_12)*%
X189500000Y-101000000D03*
%TO.P,U5,J3_13,GPIO36*%
%TO.N,unconnected-(U5-GPIO36-PadJ3_13)*%
X189500000Y-103540000D03*
%TO.P,U5,J3_14,GPIO35*%
%TO.N,unconnected-(U5-GPIO35-PadJ3_14)*%
X189500000Y-106080000D03*
%TO.P,U5,J3_15,GPIO34*%
%TO.N,unconnected-(U5-GPIO34-PadJ3_15)*%
X189500000Y-108620000D03*
%TO.P,U5,J3_16,GPIO33*%
%TO.N,unconnected-(U5-GPIO33-PadJ3_16)*%
X189500000Y-111160000D03*
%TO.P,U5,J3_17,GPIO26*%
%TO.N,unconnected-(U5-GPIO26-PadJ3_17)*%
X189500000Y-113700000D03*
%TO.P,U5,J3_18,GPIO21*%
%TO.N,unconnected-(U5-GPIO21-PadJ3_18)*%
X189500000Y-116240000D03*
%TO.P,U5,J3_19,GPIO20*%
%TO.N,unconnected-(U5-GPIO20-PadJ3_19)*%
X189500000Y-118780000D03*
%TO.P,U5,J3_20,GPIO19*%
%TO.N,unconnected-(U5-GPIO19-PadJ3_20)*%
X189500000Y-121320000D03*
%TO.P,U5,J3_21,GPIO48*%
%TO.N,/GPIO48*%
X189500000Y-123860000D03*
%TO.P,U5,J3_22,GPIO47*%
%TO.N,/GPIO47*%
X189500000Y-126400000D03*
%TD*%
D13*
%TO.P,J1,1,Pin_1*%
%TO.N,/GPIO39*%
X196750000Y-86800000D03*
D12*
%TO.P,J1,2,Pin_2*%
%TO.N,/GPIO40*%
X196750000Y-89340000D03*
%TO.P,J1,3,Pin_3*%
%TO.N,/GPIO41*%
X196750000Y-91880000D03*
%TO.P,J1,4,Pin_4*%
%TO.N,/GPIO42*%
X196750000Y-94420000D03*
%TO.P,J1,5,Pin_5*%
%TO.N,/GPIO45*%
X196750000Y-96960000D03*
%TO.P,J1,6,Pin_6*%
%TO.N,/GPIO46*%
X196750000Y-99500000D03*
%TO.P,J1,7,Pin_7*%
%TO.N,/GPIO47*%
X196750000Y-102040000D03*
%TO.P,J1,8,Pin_8*%
%TO.N,/GPIO48*%
X196750000Y-104580000D03*
%TD*%
D23*
%TO.N,/5V*%
X181040166Y-61040166D03*
X183000000Y-61500000D03*
%TD*%
D24*
%TO.N,/5V*%
X181540166Y-61040166D02*
X182467500Y-61967500D01*
X181040166Y-61040166D02*
X181540166Y-61040166D01*
X182467500Y-61967500D02*
X181810000Y-62625000D01*
X183000000Y-61500000D02*
X182935000Y-61500000D01*
X156500000Y-89250000D02*
X155770000Y-88520000D01*
X156500000Y-93750000D02*
X156500000Y-89250000D01*
%TO.N,/3.3V*%
X161400000Y-100500000D02*
X162600000Y-100500000D01*
X159250000Y-102650000D02*
X161400000Y-100500000D01*
X162600000Y-100500000D02*
X162600000Y-99700000D01*
%TO.N,/switch_signal*%
X200440000Y-135810000D02*
X195750000Y-140500000D01*
X200440000Y-115190000D02*
X200440000Y-135810000D01*
X196500000Y-111250000D02*
X200440000Y-115190000D01*
%TO.N,/GPIO48*%
X196100000Y-113350000D02*
X195250000Y-112500000D01*
X197550000Y-113350000D02*
X196100000Y-113350000D01*
X195250000Y-112500000D02*
X195250000Y-106080000D01*
X195250000Y-106080000D02*
X196750000Y-104580000D01*
%TO.N,/S3*%
X183345000Y-99925000D02*
X166640000Y-83220000D01*
X195548654Y-99925000D02*
X183345000Y-99925000D01*
X197226346Y-100650000D02*
X196273654Y-100650000D01*
X200650000Y-97226346D02*
X197226346Y-100650000D01*
X200650000Y-80600000D02*
X200650000Y-97226346D01*
X196725000Y-76675000D02*
X200650000Y-80600000D01*
X172199214Y-76675000D02*
X196725000Y-76675000D01*
X185960000Y-62914214D02*
X172199214Y-76675000D01*
X185960000Y-62085786D02*
X185960000Y-62914214D01*
X183474214Y-59600000D02*
X185960000Y-62085786D01*
X165084315Y-59600000D02*
X183474214Y-59600000D01*
X154350000Y-70334315D02*
X165084315Y-59600000D01*
X154350000Y-129890000D02*
X154350000Y-70334315D01*
X196273654Y-100650000D02*
X195548654Y-99925000D01*
X156960000Y-132500000D02*
X154350000Y-129890000D01*
%TO.N,/S1*%
X180335000Y-64445000D02*
X166640000Y-78140000D01*
X180335000Y-62183862D02*
X180335000Y-64445000D01*
X179711138Y-61560000D02*
X180335000Y-62183862D01*
X178828862Y-61560000D02*
X179711138Y-61560000D01*
X178205000Y-62183862D02*
X178828862Y-61560000D01*
X178205000Y-63066138D02*
X178205000Y-62183862D01*
X169276138Y-71995000D02*
X178205000Y-63066138D01*
X165575000Y-71995000D02*
X169276138Y-71995000D01*
X162000000Y-75570000D02*
X165575000Y-71995000D01*
X162000000Y-82250000D02*
X162000000Y-75570000D01*
%TO.N,/S2*%
X170245000Y-77075000D02*
X166640000Y-80680000D01*
X194825000Y-77075000D02*
X170245000Y-77075000D01*
X199000000Y-81250000D02*
X194825000Y-77075000D01*
%TO.N,/switch_signal*%
X189250000Y-147000000D02*
X195750000Y-140500000D01*
X167275000Y-147000000D02*
X189250000Y-147000000D01*
X164250000Y-150025000D02*
X167275000Y-147000000D01*
X162250000Y-148025000D02*
X164250000Y-150025000D01*
X160250000Y-145000000D02*
X162250000Y-147000000D01*
X160250000Y-140250000D02*
X160250000Y-145000000D01*
X162250000Y-147000000D02*
X162250000Y-148025000D01*
%TO.N,/3.3V*%
X156500000Y-121624214D02*
X156500000Y-109250000D01*
X163190000Y-135190000D02*
X163190000Y-128314214D01*
X185737500Y-139072500D02*
X167072500Y-139072500D01*
X163190000Y-128314214D02*
X156500000Y-121624214D01*
X187390000Y-137420000D02*
X185737500Y-139072500D01*
X167072500Y-139072500D02*
X163190000Y-135190000D01*
%TO.N,/SCL*%
X167705000Y-97395000D02*
X166640000Y-98460000D01*
X167705000Y-95478862D02*
X167705000Y-97395000D01*
X167081138Y-94855000D02*
X167705000Y-95478862D01*
X166198862Y-94855000D02*
X167081138Y-94855000D01*
X165175000Y-95878862D02*
X166198862Y-94855000D01*
X165175000Y-134756303D02*
X165175000Y-95878862D01*
X169091197Y-138672500D02*
X165175000Y-134756303D01*
X181057500Y-138672500D02*
X169091197Y-138672500D01*
X182310000Y-137420000D02*
X181057500Y-138672500D01*
%TO.N,/SDA*%
X165575000Y-96985000D02*
X166640000Y-95920000D01*
X167081138Y-112225000D02*
X166198862Y-112225000D01*
X165575000Y-111601138D02*
X165575000Y-96985000D01*
X179770000Y-124913862D02*
X167081138Y-112225000D01*
X179770000Y-137420000D02*
X179770000Y-124913862D01*
X166198862Y-112225000D02*
X165575000Y-111601138D01*
%TO.N,/LED4*%
X183480000Y-128000000D02*
X166640000Y-111160000D01*
X195790000Y-128000000D02*
X183480000Y-128000000D01*
X198540000Y-125250000D02*
X195790000Y-128000000D01*
%TO.N,Net-(D1-A)*%
X157670000Y-71130000D02*
X161040000Y-74500000D01*
X157670000Y-68750000D02*
X157670000Y-71130000D01*
%TO.N,/ECHO*%
X163750000Y-61500000D02*
X165250000Y-60000000D01*
X182460000Y-60000000D02*
X184960000Y-62500000D01*
X163750000Y-64250000D02*
X163750000Y-61500000D01*
X169040000Y-64250000D02*
X163750000Y-64250000D01*
X171040000Y-62250000D02*
X169040000Y-64250000D01*
X165250000Y-60000000D02*
X182460000Y-60000000D01*
%TO.N,Net-(U3-ECHO)*%
X166960000Y-61250000D02*
X165960000Y-62250000D01*
X175355000Y-61250000D02*
X166960000Y-61250000D01*
X176730000Y-62625000D02*
X175355000Y-61250000D01*
%TO.N,/TRIG*%
X167705000Y-89365000D02*
X166640000Y-88300000D01*
X167705000Y-91281138D02*
X167705000Y-89365000D01*
X167081138Y-91905000D02*
X167705000Y-91281138D01*
X166198862Y-91905000D02*
X167081138Y-91905000D01*
X165175000Y-90881138D02*
X166198862Y-91905000D01*
X165175000Y-78098862D02*
X165175000Y-90881138D01*
X166198862Y-77075000D02*
X165175000Y-78098862D01*
X167081138Y-77075000D02*
X166198862Y-77075000D01*
X179270000Y-64886138D02*
X167081138Y-77075000D01*
X179270000Y-62625000D02*
X179270000Y-64886138D01*
%TO.N,/ECHO*%
X165575000Y-89775000D02*
X166640000Y-90840000D01*
X167081138Y-79615000D02*
X166198862Y-79615000D01*
X166198862Y-79615000D02*
X165575000Y-80238862D01*
X184196138Y-62500000D02*
X167081138Y-79615000D01*
X165575000Y-80238862D02*
X165575000Y-89775000D01*
X184960000Y-62500000D02*
X184196138Y-62500000D01*
%TO.N,Net-(D2-A)*%
X196250000Y-74000000D02*
X196250000Y-72040000D01*
X196250000Y-72040000D02*
X193210000Y-69000000D01*
%TO.N,/GPIO41*%
X195710000Y-90840000D02*
X196750000Y-91880000D01*
X189500000Y-90840000D02*
X195710000Y-90840000D01*
%TO.N,/GPIO40*%
X188435000Y-90065000D02*
X189135000Y-89365000D01*
X188435000Y-92315000D02*
X188435000Y-90065000D01*
X189135000Y-89365000D02*
X196725000Y-89365000D01*
X196725000Y-89365000D02*
X196750000Y-89340000D01*
X189500000Y-93380000D02*
X188435000Y-92315000D01*
%TO.N,/GPIO39*%
X200250000Y-87750000D02*
X200250000Y-95750000D01*
X200250000Y-95750000D02*
X189670000Y-95750000D01*
X199300000Y-86800000D02*
X200250000Y-87750000D01*
X189670000Y-95750000D02*
X189500000Y-95920000D01*
X196750000Y-86800000D02*
X199300000Y-86800000D01*
%TO.N,/GPIO42*%
X187750000Y-90050000D02*
X189500000Y-88300000D01*
X187750000Y-94500000D02*
X187750000Y-90050000D01*
X196670000Y-94500000D02*
X187750000Y-94500000D01*
X196750000Y-94420000D02*
X196670000Y-94500000D01*
%TO.N,/GPIO45*%
X187250000Y-82930000D02*
X189500000Y-80680000D01*
X196710000Y-97000000D02*
X187250000Y-97000000D01*
X187250000Y-97000000D02*
X187250000Y-82930000D01*
X196750000Y-96960000D02*
X196710000Y-97000000D01*
%TO.N,/GPIO46*%
X185750000Y-81500000D02*
X186140000Y-81500000D01*
X185250000Y-82000000D02*
X185750000Y-81500000D01*
X185250000Y-96750000D02*
X185250000Y-82000000D01*
X186140000Y-81500000D02*
X189500000Y-78140000D01*
X196725000Y-99525000D02*
X188025000Y-99525000D01*
X188025000Y-99525000D02*
X185250000Y-96750000D01*
X196750000Y-99500000D02*
X196725000Y-99525000D01*
%TO.N,/GPIO45*%
X196750000Y-96960000D02*
X196315000Y-97395000D01*
%TO.N,/GPIO46*%
X196750000Y-99500000D02*
X196500000Y-99750000D01*
%TO.N,/GPIO48*%
X198470000Y-114270000D02*
X197550000Y-113350000D01*
X190565000Y-125958862D02*
X198470000Y-118053862D01*
X190565000Y-126841138D02*
X190565000Y-125958862D01*
X198470000Y-118053862D02*
X198470000Y-114270000D01*
X189941138Y-127465000D02*
X190565000Y-126841138D01*
X189058862Y-127465000D02*
X189941138Y-127465000D01*
X188435000Y-126841138D02*
X189058862Y-127465000D01*
X188435000Y-124925000D02*
X188435000Y-126841138D01*
X189500000Y-123860000D02*
X188435000Y-124925000D01*
%TO.N,/GPIO47*%
X192860000Y-105930000D02*
X196750000Y-102040000D01*
X189500000Y-126400000D02*
X192860000Y-123040000D01*
X192860000Y-123040000D02*
X192860000Y-105930000D01*
%TO.N,GND*%
X158000000Y-83330000D02*
X156920000Y-82250000D01*
X158000000Y-94500000D02*
X158000000Y-83330000D01*
X156950000Y-102650000D02*
X156950000Y-95550000D01*
X156950000Y-95550000D02*
X158000000Y-94500000D01*
%TO.N,/3.3V*%
X165440000Y-73060000D02*
X166640000Y-73060000D01*
X164500000Y-74000000D02*
X165440000Y-73060000D01*
X164500000Y-83750000D02*
X164500000Y-74000000D01*
X159250000Y-89000000D02*
X164500000Y-83750000D01*
X159250000Y-96350000D02*
X159250000Y-89000000D01*
X162600000Y-99700000D02*
X159250000Y-96350000D01*
X156904594Y-109250000D02*
X162600000Y-103554594D01*
X156500000Y-109250000D02*
X156904594Y-109250000D01*
X162600000Y-103554594D02*
X162600000Y-100500000D01*
%TO.N,/5V*%
X161550000Y-102650000D02*
X158700000Y-105500000D01*
X158700000Y-105500000D02*
X154750000Y-105500000D01*
X154750000Y-105500000D02*
X154750000Y-127750000D01*
X154750000Y-127750000D02*
X159500000Y-132500000D01*
X154750000Y-95500000D02*
X154750000Y-105500000D01*
X156500000Y-93750000D02*
X154750000Y-95500000D01*
%TO.N,GND*%
X162500000Y-106000000D02*
X162500000Y-109250000D01*
X163750000Y-104750000D02*
X162500000Y-106000000D01*
X162500000Y-89250000D02*
X162500000Y-93000000D01*
X162500000Y-93000000D02*
X163750000Y-94250000D01*
X163750000Y-94250000D02*
X163750000Y-104750000D01*
X158460000Y-115540000D02*
X158460000Y-117750000D01*
X162500000Y-111500000D02*
X158460000Y-115540000D01*
X162500000Y-109250000D02*
X162500000Y-111500000D01*
%TO.N,/5V*%
X182935000Y-61500000D02*
X182467500Y-61967500D01*
%TD*%
M02*
