%TF.GenerationSoftware,KiCad,Pcbnew,9.0.9*%
%TF.CreationDate,2026-06-28T10:34:42+05:30*%
%TF.ProjectId,MCU_Breakout,4d43555f-4272-4656-916b-6f75742e6b69,rev?*%
%TF.SameCoordinates,Original*%
%TF.FileFunction,Legend,Top*%
%TF.FilePolarity,Positive*%
%FSLAX46Y46*%
G04 Gerber Fmt 4.6, Leading zero omitted, Abs format (unit mm)*
G04 Created by KiCad (PCBNEW 9.0.9) date 2026-06-28 10:34:42*
%MOMM*%
%LPD*%
G01*
G04 APERTURE LIST*
%ADD10C,0.150000*%
%ADD11C,0.127000*%
%ADD12C,0.120000*%
%ADD13C,0.200000*%
G04 APERTURE END LIST*
D10*
X197166666Y-59554819D02*
X196833333Y-59078628D01*
X196595238Y-59554819D02*
X196595238Y-58554819D01*
X196595238Y-58554819D02*
X196976190Y-58554819D01*
X196976190Y-58554819D02*
X197071428Y-58602438D01*
X197071428Y-58602438D02*
X197119047Y-58650057D01*
X197119047Y-58650057D02*
X197166666Y-58745295D01*
X197166666Y-58745295D02*
X197166666Y-58888152D01*
X197166666Y-58888152D02*
X197119047Y-58983390D01*
X197119047Y-58983390D02*
X197071428Y-59031009D01*
X197071428Y-59031009D02*
X196976190Y-59078628D01*
X196976190Y-59078628D02*
X196595238Y-59078628D01*
X197595238Y-59031009D02*
X197928571Y-59031009D01*
X198071428Y-59554819D02*
X197595238Y-59554819D01*
X197595238Y-59554819D02*
X197595238Y-58554819D01*
X197595238Y-58554819D02*
X198071428Y-58554819D01*
X198833333Y-59031009D02*
X198500000Y-59031009D01*
X198500000Y-59554819D02*
X198500000Y-58554819D01*
X198500000Y-58554819D02*
X198976190Y-58554819D01*
X199500000Y-58554819D02*
X199500000Y-58792914D01*
X199261905Y-58697676D02*
X199500000Y-58792914D01*
X199500000Y-58792914D02*
X199738095Y-58697676D01*
X199357143Y-58983390D02*
X199500000Y-58792914D01*
X199500000Y-58792914D02*
X199642857Y-58983390D01*
X200261905Y-58554819D02*
X200261905Y-58792914D01*
X200023810Y-58697676D02*
X200261905Y-58792914D01*
X200261905Y-58792914D02*
X200500000Y-58697676D01*
X200119048Y-58983390D02*
X200261905Y-58792914D01*
X200261905Y-58792914D02*
X200404762Y-58983390D01*
X178238095Y-151954819D02*
X178238095Y-152764342D01*
X178238095Y-152764342D02*
X178285714Y-152859580D01*
X178285714Y-152859580D02*
X178333333Y-152907200D01*
X178333333Y-152907200D02*
X178428571Y-152954819D01*
X178428571Y-152954819D02*
X178619047Y-152954819D01*
X178619047Y-152954819D02*
X178714285Y-152907200D01*
X178714285Y-152907200D02*
X178761904Y-152859580D01*
X178761904Y-152859580D02*
X178809523Y-152764342D01*
X178809523Y-152764342D02*
X178809523Y-151954819D01*
X179238095Y-152050057D02*
X179285714Y-152002438D01*
X179285714Y-152002438D02*
X179380952Y-151954819D01*
X179380952Y-151954819D02*
X179619047Y-151954819D01*
X179619047Y-151954819D02*
X179714285Y-152002438D01*
X179714285Y-152002438D02*
X179761904Y-152050057D01*
X179761904Y-152050057D02*
X179809523Y-152145295D01*
X179809523Y-152145295D02*
X179809523Y-152240533D01*
X179809523Y-152240533D02*
X179761904Y-152383390D01*
X179761904Y-152383390D02*
X179190476Y-152954819D01*
X179190476Y-152954819D02*
X179809523Y-152954819D01*
X159333333Y-106359580D02*
X159285714Y-106407200D01*
X159285714Y-106407200D02*
X159142857Y-106454819D01*
X159142857Y-106454819D02*
X159047619Y-106454819D01*
X159047619Y-106454819D02*
X158904762Y-106407200D01*
X158904762Y-106407200D02*
X158809524Y-106311961D01*
X158809524Y-106311961D02*
X158761905Y-106216723D01*
X158761905Y-106216723D02*
X158714286Y-106026247D01*
X158714286Y-106026247D02*
X158714286Y-105883390D01*
X158714286Y-105883390D02*
X158761905Y-105692914D01*
X158761905Y-105692914D02*
X158809524Y-105597676D01*
X158809524Y-105597676D02*
X158904762Y-105502438D01*
X158904762Y-105502438D02*
X159047619Y-105454819D01*
X159047619Y-105454819D02*
X159142857Y-105454819D01*
X159142857Y-105454819D02*
X159285714Y-105502438D01*
X159285714Y-105502438D02*
X159333333Y-105550057D01*
X159714286Y-105550057D02*
X159761905Y-105502438D01*
X159761905Y-105502438D02*
X159857143Y-105454819D01*
X159857143Y-105454819D02*
X160095238Y-105454819D01*
X160095238Y-105454819D02*
X160190476Y-105502438D01*
X160190476Y-105502438D02*
X160238095Y-105550057D01*
X160238095Y-105550057D02*
X160285714Y-105645295D01*
X160285714Y-105645295D02*
X160285714Y-105740533D01*
X160285714Y-105740533D02*
X160238095Y-105883390D01*
X160238095Y-105883390D02*
X159666667Y-106454819D01*
X159666667Y-106454819D02*
X160285714Y-106454819D01*
X159333333Y-86359580D02*
X159285714Y-86407200D01*
X159285714Y-86407200D02*
X159142857Y-86454819D01*
X159142857Y-86454819D02*
X159047619Y-86454819D01*
X159047619Y-86454819D02*
X158904762Y-86407200D01*
X158904762Y-86407200D02*
X158809524Y-86311961D01*
X158809524Y-86311961D02*
X158761905Y-86216723D01*
X158761905Y-86216723D02*
X158714286Y-86026247D01*
X158714286Y-86026247D02*
X158714286Y-85883390D01*
X158714286Y-85883390D02*
X158761905Y-85692914D01*
X158761905Y-85692914D02*
X158809524Y-85597676D01*
X158809524Y-85597676D02*
X158904762Y-85502438D01*
X158904762Y-85502438D02*
X159047619Y-85454819D01*
X159047619Y-85454819D02*
X159142857Y-85454819D01*
X159142857Y-85454819D02*
X159285714Y-85502438D01*
X159285714Y-85502438D02*
X159333333Y-85550057D01*
X160285714Y-86454819D02*
X159714286Y-86454819D01*
X160000000Y-86454819D02*
X160000000Y-85454819D01*
X160000000Y-85454819D02*
X159904762Y-85597676D01*
X159904762Y-85597676D02*
X159809524Y-85692914D01*
X159809524Y-85692914D02*
X159714286Y-85740533D01*
X156166666Y-59554819D02*
X155833333Y-59078628D01*
X155595238Y-59554819D02*
X155595238Y-58554819D01*
X155595238Y-58554819D02*
X155976190Y-58554819D01*
X155976190Y-58554819D02*
X156071428Y-58602438D01*
X156071428Y-58602438D02*
X156119047Y-58650057D01*
X156119047Y-58650057D02*
X156166666Y-58745295D01*
X156166666Y-58745295D02*
X156166666Y-58888152D01*
X156166666Y-58888152D02*
X156119047Y-58983390D01*
X156119047Y-58983390D02*
X156071428Y-59031009D01*
X156071428Y-59031009D02*
X155976190Y-59078628D01*
X155976190Y-59078628D02*
X155595238Y-59078628D01*
X156595238Y-59031009D02*
X156928571Y-59031009D01*
X157071428Y-59554819D02*
X156595238Y-59554819D01*
X156595238Y-59554819D02*
X156595238Y-58554819D01*
X156595238Y-58554819D02*
X157071428Y-58554819D01*
X157833333Y-59031009D02*
X157500000Y-59031009D01*
X157500000Y-59554819D02*
X157500000Y-58554819D01*
X157500000Y-58554819D02*
X157976190Y-58554819D01*
X158500000Y-58554819D02*
X158500000Y-58792914D01*
X158261905Y-58697676D02*
X158500000Y-58792914D01*
X158500000Y-58792914D02*
X158738095Y-58697676D01*
X158357143Y-58983390D02*
X158500000Y-58792914D01*
X158500000Y-58792914D02*
X158642857Y-58983390D01*
X159261905Y-58554819D02*
X159261905Y-58792914D01*
X159023810Y-58697676D02*
X159261905Y-58792914D01*
X159261905Y-58792914D02*
X159500000Y-58697676D01*
X159119048Y-58983390D02*
X159261905Y-58792914D01*
X159261905Y-58792914D02*
X159404762Y-58983390D01*
X196916666Y-145054819D02*
X196583333Y-144578628D01*
X196345238Y-145054819D02*
X196345238Y-144054819D01*
X196345238Y-144054819D02*
X196726190Y-144054819D01*
X196726190Y-144054819D02*
X196821428Y-144102438D01*
X196821428Y-144102438D02*
X196869047Y-144150057D01*
X196869047Y-144150057D02*
X196916666Y-144245295D01*
X196916666Y-144245295D02*
X196916666Y-144388152D01*
X196916666Y-144388152D02*
X196869047Y-144483390D01*
X196869047Y-144483390D02*
X196821428Y-144531009D01*
X196821428Y-144531009D02*
X196726190Y-144578628D01*
X196726190Y-144578628D02*
X196345238Y-144578628D01*
X197345238Y-144531009D02*
X197678571Y-144531009D01*
X197821428Y-145054819D02*
X197345238Y-145054819D01*
X197345238Y-145054819D02*
X197345238Y-144054819D01*
X197345238Y-144054819D02*
X197821428Y-144054819D01*
X198583333Y-144531009D02*
X198250000Y-144531009D01*
X198250000Y-145054819D02*
X198250000Y-144054819D01*
X198250000Y-144054819D02*
X198726190Y-144054819D01*
X199250000Y-144054819D02*
X199250000Y-144292914D01*
X199011905Y-144197676D02*
X199250000Y-144292914D01*
X199250000Y-144292914D02*
X199488095Y-144197676D01*
X199107143Y-144483390D02*
X199250000Y-144292914D01*
X199250000Y-144292914D02*
X199392857Y-144483390D01*
X200011905Y-144054819D02*
X200011905Y-144292914D01*
X199773810Y-144197676D02*
X200011905Y-144292914D01*
X200011905Y-144292914D02*
X200250000Y-144197676D01*
X199869048Y-144483390D02*
X200011905Y-144292914D01*
X200011905Y-144292914D02*
X200154762Y-144483390D01*
X157166666Y-145304819D02*
X156833333Y-144828628D01*
X156595238Y-145304819D02*
X156595238Y-144304819D01*
X156595238Y-144304819D02*
X156976190Y-144304819D01*
X156976190Y-144304819D02*
X157071428Y-144352438D01*
X157071428Y-144352438D02*
X157119047Y-144400057D01*
X157119047Y-144400057D02*
X157166666Y-144495295D01*
X157166666Y-144495295D02*
X157166666Y-144638152D01*
X157166666Y-144638152D02*
X157119047Y-144733390D01*
X157119047Y-144733390D02*
X157071428Y-144781009D01*
X157071428Y-144781009D02*
X156976190Y-144828628D01*
X156976190Y-144828628D02*
X156595238Y-144828628D01*
X157595238Y-144781009D02*
X157928571Y-144781009D01*
X158071428Y-145304819D02*
X157595238Y-145304819D01*
X157595238Y-145304819D02*
X157595238Y-144304819D01*
X157595238Y-144304819D02*
X158071428Y-144304819D01*
X158833333Y-144781009D02*
X158500000Y-144781009D01*
X158500000Y-145304819D02*
X158500000Y-144304819D01*
X158500000Y-144304819D02*
X158976190Y-144304819D01*
X159500000Y-144304819D02*
X159500000Y-144542914D01*
X159261905Y-144447676D02*
X159500000Y-144542914D01*
X159500000Y-144542914D02*
X159738095Y-144447676D01*
X159357143Y-144733390D02*
X159500000Y-144542914D01*
X159500000Y-144542914D02*
X159642857Y-144733390D01*
X160261905Y-144304819D02*
X160261905Y-144542914D01*
X160023810Y-144447676D02*
X160261905Y-144542914D01*
X160261905Y-144542914D02*
X160500000Y-144447676D01*
X160119048Y-144733390D02*
X160261905Y-144542914D01*
X160261905Y-144542914D02*
X160404762Y-144733390D01*
X192166666Y-151914819D02*
X192166666Y-152629104D01*
X192166666Y-152629104D02*
X192119047Y-152771961D01*
X192119047Y-152771961D02*
X192023809Y-152867200D01*
X192023809Y-152867200D02*
X191880952Y-152914819D01*
X191880952Y-152914819D02*
X191785714Y-152914819D01*
X193071428Y-151914819D02*
X192880952Y-151914819D01*
X192880952Y-151914819D02*
X192785714Y-151962438D01*
X192785714Y-151962438D02*
X192738095Y-152010057D01*
X192738095Y-152010057D02*
X192642857Y-152152914D01*
X192642857Y-152152914D02*
X192595238Y-152343390D01*
X192595238Y-152343390D02*
X192595238Y-152724342D01*
X192595238Y-152724342D02*
X192642857Y-152819580D01*
X192642857Y-152819580D02*
X192690476Y-152867200D01*
X192690476Y-152867200D02*
X192785714Y-152914819D01*
X192785714Y-152914819D02*
X192976190Y-152914819D01*
X192976190Y-152914819D02*
X193071428Y-152867200D01*
X193071428Y-152867200D02*
X193119047Y-152819580D01*
X193119047Y-152819580D02*
X193166666Y-152724342D01*
X193166666Y-152724342D02*
X193166666Y-152486247D01*
X193166666Y-152486247D02*
X193119047Y-152391009D01*
X193119047Y-152391009D02*
X193071428Y-152343390D01*
X193071428Y-152343390D02*
X192976190Y-152295771D01*
X192976190Y-152295771D02*
X192785714Y-152295771D01*
X192785714Y-152295771D02*
X192690476Y-152343390D01*
X192690476Y-152343390D02*
X192642857Y-152391009D01*
X192642857Y-152391009D02*
X192595238Y-152486247D01*
X158916667Y-143157200D02*
X159059524Y-143204819D01*
X159059524Y-143204819D02*
X159297619Y-143204819D01*
X159297619Y-143204819D02*
X159392857Y-143157200D01*
X159392857Y-143157200D02*
X159440476Y-143109580D01*
X159440476Y-143109580D02*
X159488095Y-143014342D01*
X159488095Y-143014342D02*
X159488095Y-142919104D01*
X159488095Y-142919104D02*
X159440476Y-142823866D01*
X159440476Y-142823866D02*
X159392857Y-142776247D01*
X159392857Y-142776247D02*
X159297619Y-142728628D01*
X159297619Y-142728628D02*
X159107143Y-142681009D01*
X159107143Y-142681009D02*
X159011905Y-142633390D01*
X159011905Y-142633390D02*
X158964286Y-142585771D01*
X158964286Y-142585771D02*
X158916667Y-142490533D01*
X158916667Y-142490533D02*
X158916667Y-142395295D01*
X158916667Y-142395295D02*
X158964286Y-142300057D01*
X158964286Y-142300057D02*
X159011905Y-142252438D01*
X159011905Y-142252438D02*
X159107143Y-142204819D01*
X159107143Y-142204819D02*
X159345238Y-142204819D01*
X159345238Y-142204819D02*
X159488095Y-142252438D01*
X159821429Y-142204819D02*
X160059524Y-143204819D01*
X160059524Y-143204819D02*
X160250000Y-142490533D01*
X160250000Y-142490533D02*
X160440476Y-143204819D01*
X160440476Y-143204819D02*
X160678572Y-142204819D01*
X161011905Y-142300057D02*
X161059524Y-142252438D01*
X161059524Y-142252438D02*
X161154762Y-142204819D01*
X161154762Y-142204819D02*
X161392857Y-142204819D01*
X161392857Y-142204819D02*
X161488095Y-142252438D01*
X161488095Y-142252438D02*
X161535714Y-142300057D01*
X161535714Y-142300057D02*
X161583333Y-142395295D01*
X161583333Y-142395295D02*
X161583333Y-142490533D01*
X161583333Y-142490533D02*
X161535714Y-142633390D01*
X161535714Y-142633390D02*
X160964286Y-143204819D01*
X160964286Y-143204819D02*
X161583333Y-143204819D01*
X194416667Y-143157200D02*
X194559524Y-143204819D01*
X194559524Y-143204819D02*
X194797619Y-143204819D01*
X194797619Y-143204819D02*
X194892857Y-143157200D01*
X194892857Y-143157200D02*
X194940476Y-143109580D01*
X194940476Y-143109580D02*
X194988095Y-143014342D01*
X194988095Y-143014342D02*
X194988095Y-142919104D01*
X194988095Y-142919104D02*
X194940476Y-142823866D01*
X194940476Y-142823866D02*
X194892857Y-142776247D01*
X194892857Y-142776247D02*
X194797619Y-142728628D01*
X194797619Y-142728628D02*
X194607143Y-142681009D01*
X194607143Y-142681009D02*
X194511905Y-142633390D01*
X194511905Y-142633390D02*
X194464286Y-142585771D01*
X194464286Y-142585771D02*
X194416667Y-142490533D01*
X194416667Y-142490533D02*
X194416667Y-142395295D01*
X194416667Y-142395295D02*
X194464286Y-142300057D01*
X194464286Y-142300057D02*
X194511905Y-142252438D01*
X194511905Y-142252438D02*
X194607143Y-142204819D01*
X194607143Y-142204819D02*
X194845238Y-142204819D01*
X194845238Y-142204819D02*
X194988095Y-142252438D01*
X195321429Y-142204819D02*
X195559524Y-143204819D01*
X195559524Y-143204819D02*
X195750000Y-142490533D01*
X195750000Y-142490533D02*
X195940476Y-143204819D01*
X195940476Y-143204819D02*
X196178572Y-142204819D01*
X196464286Y-142204819D02*
X197083333Y-142204819D01*
X197083333Y-142204819D02*
X196750000Y-142585771D01*
X196750000Y-142585771D02*
X196892857Y-142585771D01*
X196892857Y-142585771D02*
X196988095Y-142633390D01*
X196988095Y-142633390D02*
X197035714Y-142681009D01*
X197035714Y-142681009D02*
X197083333Y-142776247D01*
X197083333Y-142776247D02*
X197083333Y-143014342D01*
X197083333Y-143014342D02*
X197035714Y-143109580D01*
X197035714Y-143109580D02*
X196988095Y-143157200D01*
X196988095Y-143157200D02*
X196892857Y-143204819D01*
X196892857Y-143204819D02*
X196607143Y-143204819D01*
X196607143Y-143204819D02*
X196511905Y-143157200D01*
X196511905Y-143157200D02*
X196464286Y-143109580D01*
X195511905Y-121954819D02*
X195511905Y-120954819D01*
X195511905Y-120954819D02*
X195750000Y-120954819D01*
X195750000Y-120954819D02*
X195892857Y-121002438D01*
X195892857Y-121002438D02*
X195988095Y-121097676D01*
X195988095Y-121097676D02*
X196035714Y-121192914D01*
X196035714Y-121192914D02*
X196083333Y-121383390D01*
X196083333Y-121383390D02*
X196083333Y-121526247D01*
X196083333Y-121526247D02*
X196035714Y-121716723D01*
X196035714Y-121716723D02*
X195988095Y-121811961D01*
X195988095Y-121811961D02*
X195892857Y-121907200D01*
X195892857Y-121907200D02*
X195750000Y-121954819D01*
X195750000Y-121954819D02*
X195511905Y-121954819D01*
X196940476Y-121288152D02*
X196940476Y-121954819D01*
X196702381Y-120907200D02*
X196464286Y-121621485D01*
X196464286Y-121621485D02*
X197083333Y-121621485D01*
X163916666Y-151954819D02*
X163916666Y-152669104D01*
X163916666Y-152669104D02*
X163869047Y-152811961D01*
X163869047Y-152811961D02*
X163773809Y-152907200D01*
X163773809Y-152907200D02*
X163630952Y-152954819D01*
X163630952Y-152954819D02*
X163535714Y-152954819D01*
X164297619Y-151954819D02*
X164964285Y-151954819D01*
X164964285Y-151954819D02*
X164535714Y-152954819D01*
X196416666Y-135204819D02*
X196416666Y-135919104D01*
X196416666Y-135919104D02*
X196369047Y-136061961D01*
X196369047Y-136061961D02*
X196273809Y-136157200D01*
X196273809Y-136157200D02*
X196130952Y-136204819D01*
X196130952Y-136204819D02*
X196035714Y-136204819D01*
X197369047Y-135204819D02*
X196892857Y-135204819D01*
X196892857Y-135204819D02*
X196845238Y-135681009D01*
X196845238Y-135681009D02*
X196892857Y-135633390D01*
X196892857Y-135633390D02*
X196988095Y-135585771D01*
X196988095Y-135585771D02*
X197226190Y-135585771D01*
X197226190Y-135585771D02*
X197321428Y-135633390D01*
X197321428Y-135633390D02*
X197369047Y-135681009D01*
X197369047Y-135681009D02*
X197416666Y-135776247D01*
X197416666Y-135776247D02*
X197416666Y-136014342D01*
X197416666Y-136014342D02*
X197369047Y-136109580D01*
X197369047Y-136109580D02*
X197321428Y-136157200D01*
X197321428Y-136157200D02*
X197226190Y-136204819D01*
X197226190Y-136204819D02*
X196988095Y-136204819D01*
X196988095Y-136204819D02*
X196892857Y-136157200D01*
X196892857Y-136157200D02*
X196845238Y-136109580D01*
X195166667Y-114197200D02*
X195309524Y-114244819D01*
X195309524Y-114244819D02*
X195547619Y-114244819D01*
X195547619Y-114244819D02*
X195642857Y-114197200D01*
X195642857Y-114197200D02*
X195690476Y-114149580D01*
X195690476Y-114149580D02*
X195738095Y-114054342D01*
X195738095Y-114054342D02*
X195738095Y-113959104D01*
X195738095Y-113959104D02*
X195690476Y-113863866D01*
X195690476Y-113863866D02*
X195642857Y-113816247D01*
X195642857Y-113816247D02*
X195547619Y-113768628D01*
X195547619Y-113768628D02*
X195357143Y-113721009D01*
X195357143Y-113721009D02*
X195261905Y-113673390D01*
X195261905Y-113673390D02*
X195214286Y-113625771D01*
X195214286Y-113625771D02*
X195166667Y-113530533D01*
X195166667Y-113530533D02*
X195166667Y-113435295D01*
X195166667Y-113435295D02*
X195214286Y-113340057D01*
X195214286Y-113340057D02*
X195261905Y-113292438D01*
X195261905Y-113292438D02*
X195357143Y-113244819D01*
X195357143Y-113244819D02*
X195595238Y-113244819D01*
X195595238Y-113244819D02*
X195738095Y-113292438D01*
X196071429Y-113244819D02*
X196309524Y-114244819D01*
X196309524Y-114244819D02*
X196500000Y-113530533D01*
X196500000Y-113530533D02*
X196690476Y-114244819D01*
X196690476Y-114244819D02*
X196928572Y-113244819D01*
X197833333Y-114244819D02*
X197261905Y-114244819D01*
X197547619Y-114244819D02*
X197547619Y-113244819D01*
X197547619Y-113244819D02*
X197452381Y-113387676D01*
X197452381Y-113387676D02*
X197357143Y-113482914D01*
X197357143Y-113482914D02*
X197261905Y-113530533D01*
X160043333Y-71124819D02*
X159710000Y-70648628D01*
X159471905Y-71124819D02*
X159471905Y-70124819D01*
X159471905Y-70124819D02*
X159852857Y-70124819D01*
X159852857Y-70124819D02*
X159948095Y-70172438D01*
X159948095Y-70172438D02*
X159995714Y-70220057D01*
X159995714Y-70220057D02*
X160043333Y-70315295D01*
X160043333Y-70315295D02*
X160043333Y-70458152D01*
X160043333Y-70458152D02*
X159995714Y-70553390D01*
X159995714Y-70553390D02*
X159948095Y-70601009D01*
X159948095Y-70601009D02*
X159852857Y-70648628D01*
X159852857Y-70648628D02*
X159471905Y-70648628D01*
X160995714Y-71124819D02*
X160424286Y-71124819D01*
X160710000Y-71124819D02*
X160710000Y-70124819D01*
X160710000Y-70124819D02*
X160614762Y-70267676D01*
X160614762Y-70267676D02*
X160519524Y-70362914D01*
X160519524Y-70362914D02*
X160424286Y-70410533D01*
X183237699Y-58954539D02*
X183237699Y-59764484D01*
X183237699Y-59764484D02*
X183285342Y-59859772D01*
X183285342Y-59859772D02*
X183332986Y-59907416D01*
X183332986Y-59907416D02*
X183428274Y-59955059D01*
X183428274Y-59955059D02*
X183618849Y-59955059D01*
X183618849Y-59955059D02*
X183714137Y-59907416D01*
X183714137Y-59907416D02*
X183761780Y-59859772D01*
X183761780Y-59859772D02*
X183809424Y-59764484D01*
X183809424Y-59764484D02*
X183809424Y-58954539D01*
X184190575Y-58954539D02*
X184809944Y-58954539D01*
X184809944Y-58954539D02*
X184476438Y-59335690D01*
X184476438Y-59335690D02*
X184619369Y-59335690D01*
X184619369Y-59335690D02*
X184714657Y-59383334D01*
X184714657Y-59383334D02*
X184762301Y-59430977D01*
X184762301Y-59430977D02*
X184809944Y-59526265D01*
X184809944Y-59526265D02*
X184809944Y-59764484D01*
X184809944Y-59764484D02*
X184762301Y-59859772D01*
X184762301Y-59859772D02*
X184714657Y-59907416D01*
X184714657Y-59907416D02*
X184619369Y-59955059D01*
X184619369Y-59955059D02*
X184333506Y-59955059D01*
X184333506Y-59955059D02*
X184238219Y-59907416D01*
X184238219Y-59907416D02*
X184190575Y-59859772D01*
X154761905Y-74954819D02*
X154761905Y-73954819D01*
X154761905Y-73954819D02*
X155000000Y-73954819D01*
X155000000Y-73954819D02*
X155142857Y-74002438D01*
X155142857Y-74002438D02*
X155238095Y-74097676D01*
X155238095Y-74097676D02*
X155285714Y-74192914D01*
X155285714Y-74192914D02*
X155333333Y-74383390D01*
X155333333Y-74383390D02*
X155333333Y-74526247D01*
X155333333Y-74526247D02*
X155285714Y-74716723D01*
X155285714Y-74716723D02*
X155238095Y-74811961D01*
X155238095Y-74811961D02*
X155142857Y-74907200D01*
X155142857Y-74907200D02*
X155000000Y-74954819D01*
X155000000Y-74954819D02*
X154761905Y-74954819D01*
X156285714Y-74954819D02*
X155714286Y-74954819D01*
X156000000Y-74954819D02*
X156000000Y-73954819D01*
X156000000Y-73954819D02*
X155904762Y-74097676D01*
X155904762Y-74097676D02*
X155809524Y-74192914D01*
X155809524Y-74192914D02*
X155714286Y-74240533D01*
X196166666Y-83454819D02*
X196166666Y-84169104D01*
X196166666Y-84169104D02*
X196119047Y-84311961D01*
X196119047Y-84311961D02*
X196023809Y-84407200D01*
X196023809Y-84407200D02*
X195880952Y-84454819D01*
X195880952Y-84454819D02*
X195785714Y-84454819D01*
X196547619Y-83454819D02*
X197166666Y-83454819D01*
X197166666Y-83454819D02*
X196833333Y-83835771D01*
X196833333Y-83835771D02*
X196976190Y-83835771D01*
X196976190Y-83835771D02*
X197071428Y-83883390D01*
X197071428Y-83883390D02*
X197119047Y-83931009D01*
X197119047Y-83931009D02*
X197166666Y-84026247D01*
X197166666Y-84026247D02*
X197166666Y-84264342D01*
X197166666Y-84264342D02*
X197119047Y-84359580D01*
X197119047Y-84359580D02*
X197071428Y-84407200D01*
X197071428Y-84407200D02*
X196976190Y-84454819D01*
X196976190Y-84454819D02*
X196690476Y-84454819D01*
X196690476Y-84454819D02*
X196595238Y-84407200D01*
X196595238Y-84407200D02*
X196547619Y-84359580D01*
X168333333Y-64624819D02*
X168000000Y-64148628D01*
X167761905Y-64624819D02*
X167761905Y-63624819D01*
X167761905Y-63624819D02*
X168142857Y-63624819D01*
X168142857Y-63624819D02*
X168238095Y-63672438D01*
X168238095Y-63672438D02*
X168285714Y-63720057D01*
X168285714Y-63720057D02*
X168333333Y-63815295D01*
X168333333Y-63815295D02*
X168333333Y-63958152D01*
X168333333Y-63958152D02*
X168285714Y-64053390D01*
X168285714Y-64053390D02*
X168238095Y-64101009D01*
X168238095Y-64101009D02*
X168142857Y-64148628D01*
X168142857Y-64148628D02*
X167761905Y-64148628D01*
X169238095Y-63624819D02*
X168761905Y-63624819D01*
X168761905Y-63624819D02*
X168714286Y-64101009D01*
X168714286Y-64101009D02*
X168761905Y-64053390D01*
X168761905Y-64053390D02*
X168857143Y-64005771D01*
X168857143Y-64005771D02*
X169095238Y-64005771D01*
X169095238Y-64005771D02*
X169190476Y-64053390D01*
X169190476Y-64053390D02*
X169238095Y-64101009D01*
X169238095Y-64101009D02*
X169285714Y-64196247D01*
X169285714Y-64196247D02*
X169285714Y-64434342D01*
X169285714Y-64434342D02*
X169238095Y-64529580D01*
X169238095Y-64529580D02*
X169190476Y-64577200D01*
X169190476Y-64577200D02*
X169095238Y-64624819D01*
X169095238Y-64624819D02*
X168857143Y-64624819D01*
X168857143Y-64624819D02*
X168761905Y-64577200D01*
X168761905Y-64577200D02*
X168714286Y-64529580D01*
X187333333Y-64874819D02*
X187000000Y-64398628D01*
X186761905Y-64874819D02*
X186761905Y-63874819D01*
X186761905Y-63874819D02*
X187142857Y-63874819D01*
X187142857Y-63874819D02*
X187238095Y-63922438D01*
X187238095Y-63922438D02*
X187285714Y-63970057D01*
X187285714Y-63970057D02*
X187333333Y-64065295D01*
X187333333Y-64065295D02*
X187333333Y-64208152D01*
X187333333Y-64208152D02*
X187285714Y-64303390D01*
X187285714Y-64303390D02*
X187238095Y-64351009D01*
X187238095Y-64351009D02*
X187142857Y-64398628D01*
X187142857Y-64398628D02*
X186761905Y-64398628D01*
X188190476Y-63874819D02*
X188000000Y-63874819D01*
X188000000Y-63874819D02*
X187904762Y-63922438D01*
X187904762Y-63922438D02*
X187857143Y-63970057D01*
X187857143Y-63970057D02*
X187761905Y-64112914D01*
X187761905Y-64112914D02*
X187714286Y-64303390D01*
X187714286Y-64303390D02*
X187714286Y-64684342D01*
X187714286Y-64684342D02*
X187761905Y-64779580D01*
X187761905Y-64779580D02*
X187809524Y-64827200D01*
X187809524Y-64827200D02*
X187904762Y-64874819D01*
X187904762Y-64874819D02*
X188095238Y-64874819D01*
X188095238Y-64874819D02*
X188190476Y-64827200D01*
X188190476Y-64827200D02*
X188238095Y-64779580D01*
X188238095Y-64779580D02*
X188285714Y-64684342D01*
X188285714Y-64684342D02*
X188285714Y-64446247D01*
X188285714Y-64446247D02*
X188238095Y-64351009D01*
X188238095Y-64351009D02*
X188190476Y-64303390D01*
X188190476Y-64303390D02*
X188095238Y-64255771D01*
X188095238Y-64255771D02*
X187904762Y-64255771D01*
X187904762Y-64255771D02*
X187809524Y-64303390D01*
X187809524Y-64303390D02*
X187761905Y-64351009D01*
X187761905Y-64351009D02*
X187714286Y-64446247D01*
X195583333Y-67704819D02*
X195250000Y-67228628D01*
X195011905Y-67704819D02*
X195011905Y-66704819D01*
X195011905Y-66704819D02*
X195392857Y-66704819D01*
X195392857Y-66704819D02*
X195488095Y-66752438D01*
X195488095Y-66752438D02*
X195535714Y-66800057D01*
X195535714Y-66800057D02*
X195583333Y-66895295D01*
X195583333Y-66895295D02*
X195583333Y-67038152D01*
X195583333Y-67038152D02*
X195535714Y-67133390D01*
X195535714Y-67133390D02*
X195488095Y-67181009D01*
X195488095Y-67181009D02*
X195392857Y-67228628D01*
X195392857Y-67228628D02*
X195011905Y-67228628D01*
X195964286Y-66800057D02*
X196011905Y-66752438D01*
X196011905Y-66752438D02*
X196107143Y-66704819D01*
X196107143Y-66704819D02*
X196345238Y-66704819D01*
X196345238Y-66704819D02*
X196440476Y-66752438D01*
X196440476Y-66752438D02*
X196488095Y-66800057D01*
X196488095Y-66800057D02*
X196535714Y-66895295D01*
X196535714Y-66895295D02*
X196535714Y-66990533D01*
X196535714Y-66990533D02*
X196488095Y-67133390D01*
X196488095Y-67133390D02*
X195916667Y-67704819D01*
X195916667Y-67704819D02*
X196535714Y-67704819D01*
X159166666Y-79204819D02*
X159166666Y-79919104D01*
X159166666Y-79919104D02*
X159119047Y-80061961D01*
X159119047Y-80061961D02*
X159023809Y-80157200D01*
X159023809Y-80157200D02*
X158880952Y-80204819D01*
X158880952Y-80204819D02*
X158785714Y-80204819D01*
X159595238Y-79300057D02*
X159642857Y-79252438D01*
X159642857Y-79252438D02*
X159738095Y-79204819D01*
X159738095Y-79204819D02*
X159976190Y-79204819D01*
X159976190Y-79204819D02*
X160071428Y-79252438D01*
X160071428Y-79252438D02*
X160119047Y-79300057D01*
X160119047Y-79300057D02*
X160166666Y-79395295D01*
X160166666Y-79395295D02*
X160166666Y-79490533D01*
X160166666Y-79490533D02*
X160119047Y-79633390D01*
X160119047Y-79633390D02*
X159547619Y-80204819D01*
X159547619Y-80204819D02*
X160166666Y-80204819D01*
X195833333Y-127454819D02*
X195500000Y-126978628D01*
X195261905Y-127454819D02*
X195261905Y-126454819D01*
X195261905Y-126454819D02*
X195642857Y-126454819D01*
X195642857Y-126454819D02*
X195738095Y-126502438D01*
X195738095Y-126502438D02*
X195785714Y-126550057D01*
X195785714Y-126550057D02*
X195833333Y-126645295D01*
X195833333Y-126645295D02*
X195833333Y-126788152D01*
X195833333Y-126788152D02*
X195785714Y-126883390D01*
X195785714Y-126883390D02*
X195738095Y-126931009D01*
X195738095Y-126931009D02*
X195642857Y-126978628D01*
X195642857Y-126978628D02*
X195261905Y-126978628D01*
X196690476Y-126788152D02*
X196690476Y-127454819D01*
X196452381Y-126407200D02*
X196214286Y-127121485D01*
X196214286Y-127121485D02*
X196833333Y-127121485D01*
X199011905Y-74454819D02*
X199011905Y-73454819D01*
X199011905Y-73454819D02*
X199250000Y-73454819D01*
X199250000Y-73454819D02*
X199392857Y-73502438D01*
X199392857Y-73502438D02*
X199488095Y-73597676D01*
X199488095Y-73597676D02*
X199535714Y-73692914D01*
X199535714Y-73692914D02*
X199583333Y-73883390D01*
X199583333Y-73883390D02*
X199583333Y-74026247D01*
X199583333Y-74026247D02*
X199535714Y-74216723D01*
X199535714Y-74216723D02*
X199488095Y-74311961D01*
X199488095Y-74311961D02*
X199392857Y-74407200D01*
X199392857Y-74407200D02*
X199250000Y-74454819D01*
X199250000Y-74454819D02*
X199011905Y-74454819D01*
X199964286Y-73550057D02*
X200011905Y-73502438D01*
X200011905Y-73502438D02*
X200107143Y-73454819D01*
X200107143Y-73454819D02*
X200345238Y-73454819D01*
X200345238Y-73454819D02*
X200440476Y-73502438D01*
X200440476Y-73502438D02*
X200488095Y-73550057D01*
X200488095Y-73550057D02*
X200535714Y-73645295D01*
X200535714Y-73645295D02*
X200535714Y-73740533D01*
X200535714Y-73740533D02*
X200488095Y-73883390D01*
X200488095Y-73883390D02*
X199916667Y-74454819D01*
X199916667Y-74454819D02*
X200535714Y-74454819D01*
X159011905Y-121954819D02*
X159011905Y-120954819D01*
X159011905Y-120954819D02*
X159250000Y-120954819D01*
X159250000Y-120954819D02*
X159392857Y-121002438D01*
X159392857Y-121002438D02*
X159488095Y-121097676D01*
X159488095Y-121097676D02*
X159535714Y-121192914D01*
X159535714Y-121192914D02*
X159583333Y-121383390D01*
X159583333Y-121383390D02*
X159583333Y-121526247D01*
X159583333Y-121526247D02*
X159535714Y-121716723D01*
X159535714Y-121716723D02*
X159488095Y-121811961D01*
X159488095Y-121811961D02*
X159392857Y-121907200D01*
X159392857Y-121907200D02*
X159250000Y-121954819D01*
X159250000Y-121954819D02*
X159011905Y-121954819D01*
X159916667Y-120954819D02*
X160535714Y-120954819D01*
X160535714Y-120954819D02*
X160202381Y-121335771D01*
X160202381Y-121335771D02*
X160345238Y-121335771D01*
X160345238Y-121335771D02*
X160440476Y-121383390D01*
X160440476Y-121383390D02*
X160488095Y-121431009D01*
X160488095Y-121431009D02*
X160535714Y-121526247D01*
X160535714Y-121526247D02*
X160535714Y-121764342D01*
X160535714Y-121764342D02*
X160488095Y-121859580D01*
X160488095Y-121859580D02*
X160440476Y-121907200D01*
X160440476Y-121907200D02*
X160345238Y-121954819D01*
X160345238Y-121954819D02*
X160059524Y-121954819D01*
X160059524Y-121954819D02*
X159964286Y-121907200D01*
X159964286Y-121907200D02*
X159916667Y-121859580D01*
X158738095Y-93704819D02*
X158738095Y-94514342D01*
X158738095Y-94514342D02*
X158785714Y-94609580D01*
X158785714Y-94609580D02*
X158833333Y-94657200D01*
X158833333Y-94657200D02*
X158928571Y-94704819D01*
X158928571Y-94704819D02*
X159119047Y-94704819D01*
X159119047Y-94704819D02*
X159214285Y-94657200D01*
X159214285Y-94657200D02*
X159261904Y-94609580D01*
X159261904Y-94609580D02*
X159309523Y-94514342D01*
X159309523Y-94514342D02*
X159309523Y-93704819D01*
X160214285Y-94038152D02*
X160214285Y-94704819D01*
X159976190Y-93657200D02*
X159738095Y-94371485D01*
X159738095Y-94371485D02*
X160357142Y-94371485D01*
X159583333Y-128704819D02*
X159250000Y-128228628D01*
X159011905Y-128704819D02*
X159011905Y-127704819D01*
X159011905Y-127704819D02*
X159392857Y-127704819D01*
X159392857Y-127704819D02*
X159488095Y-127752438D01*
X159488095Y-127752438D02*
X159535714Y-127800057D01*
X159535714Y-127800057D02*
X159583333Y-127895295D01*
X159583333Y-127895295D02*
X159583333Y-128038152D01*
X159583333Y-128038152D02*
X159535714Y-128133390D01*
X159535714Y-128133390D02*
X159488095Y-128181009D01*
X159488095Y-128181009D02*
X159392857Y-128228628D01*
X159392857Y-128228628D02*
X159011905Y-128228628D01*
X159916667Y-127704819D02*
X160535714Y-127704819D01*
X160535714Y-127704819D02*
X160202381Y-128085771D01*
X160202381Y-128085771D02*
X160345238Y-128085771D01*
X160345238Y-128085771D02*
X160440476Y-128133390D01*
X160440476Y-128133390D02*
X160488095Y-128181009D01*
X160488095Y-128181009D02*
X160535714Y-128276247D01*
X160535714Y-128276247D02*
X160535714Y-128514342D01*
X160535714Y-128514342D02*
X160488095Y-128609580D01*
X160488095Y-128609580D02*
X160440476Y-128657200D01*
X160440476Y-128657200D02*
X160345238Y-128704819D01*
X160345238Y-128704819D02*
X160059524Y-128704819D01*
X160059524Y-128704819D02*
X159964286Y-128657200D01*
X159964286Y-128657200D02*
X159916667Y-128609580D01*
X159166666Y-134954819D02*
X159166666Y-135669104D01*
X159166666Y-135669104D02*
X159119047Y-135811961D01*
X159119047Y-135811961D02*
X159023809Y-135907200D01*
X159023809Y-135907200D02*
X158880952Y-135954819D01*
X158880952Y-135954819D02*
X158785714Y-135954819D01*
X160071428Y-135288152D02*
X160071428Y-135954819D01*
X159833333Y-134907200D02*
X159595238Y-135621485D01*
X159595238Y-135621485D02*
X160214285Y-135621485D01*
X177238095Y-63954819D02*
X177238095Y-64764342D01*
X177238095Y-64764342D02*
X177285714Y-64859580D01*
X177285714Y-64859580D02*
X177333333Y-64907200D01*
X177333333Y-64907200D02*
X177428571Y-64954819D01*
X177428571Y-64954819D02*
X177619047Y-64954819D01*
X177619047Y-64954819D02*
X177714285Y-64907200D01*
X177714285Y-64907200D02*
X177761904Y-64859580D01*
X177761904Y-64859580D02*
X177809523Y-64764342D01*
X177809523Y-64764342D02*
X177809523Y-63954819D01*
X178761904Y-63954819D02*
X178285714Y-63954819D01*
X178285714Y-63954819D02*
X178238095Y-64431009D01*
X178238095Y-64431009D02*
X178285714Y-64383390D01*
X178285714Y-64383390D02*
X178380952Y-64335771D01*
X178380952Y-64335771D02*
X178619047Y-64335771D01*
X178619047Y-64335771D02*
X178714285Y-64383390D01*
X178714285Y-64383390D02*
X178761904Y-64431009D01*
X178761904Y-64431009D02*
X178809523Y-64526247D01*
X178809523Y-64526247D02*
X178809523Y-64764342D01*
X178809523Y-64764342D02*
X178761904Y-64859580D01*
X178761904Y-64859580D02*
X178714285Y-64907200D01*
X178714285Y-64907200D02*
X178619047Y-64954819D01*
X178619047Y-64954819D02*
X178380952Y-64954819D01*
X178380952Y-64954819D02*
X178285714Y-64907200D01*
X178285714Y-64907200D02*
X178238095Y-64859580D01*
X199416666Y-94954819D02*
X199416666Y-95669104D01*
X199416666Y-95669104D02*
X199369047Y-95811961D01*
X199369047Y-95811961D02*
X199273809Y-95907200D01*
X199273809Y-95907200D02*
X199130952Y-95954819D01*
X199130952Y-95954819D02*
X199035714Y-95954819D01*
X200416666Y-95954819D02*
X199845238Y-95954819D01*
X200130952Y-95954819D02*
X200130952Y-94954819D01*
X200130952Y-94954819D02*
X200035714Y-95097676D01*
X200035714Y-95097676D02*
X199940476Y-95192914D01*
X199940476Y-95192914D02*
X199845238Y-95240533D01*
D11*
%TO.C,U2*%
X188650000Y-151600000D02*
X168350000Y-151600000D01*
X188650000Y-138692500D02*
X188650000Y-151600000D01*
X168350000Y-151600000D02*
X168350000Y-138692500D01*
X168350000Y-135900000D02*
X188650000Y-135900000D01*
D12*
%TO.C,C2*%
X157050000Y-107050000D02*
X157050000Y-107550000D01*
X157050000Y-107050000D02*
X157550000Y-107050000D01*
X157050000Y-111450000D02*
X157050000Y-110950000D01*
X157050000Y-111450000D02*
X157550000Y-111450000D01*
X161950000Y-107050000D02*
X161450000Y-107050000D01*
X161950000Y-107050000D02*
X161950000Y-107550000D01*
X161950000Y-111450000D02*
X161450000Y-111450000D01*
X161950000Y-111450000D02*
X161950000Y-110950000D01*
%TO.C,C1*%
X157050000Y-87050000D02*
X157050000Y-87550000D01*
X157050000Y-87050000D02*
X157550000Y-87050000D01*
X157050000Y-91450000D02*
X157050000Y-90950000D01*
X157050000Y-91450000D02*
X157550000Y-91450000D01*
X161950000Y-87050000D02*
X161450000Y-87050000D01*
X161950000Y-87050000D02*
X161950000Y-87550000D01*
X161950000Y-91450000D02*
X161450000Y-91450000D01*
X161950000Y-91450000D02*
X161950000Y-90950000D01*
%TO.C,J6*%
X191120000Y-145830000D02*
X192500000Y-145830000D01*
X191120000Y-147210000D02*
X191120000Y-145830000D01*
X193880000Y-148480000D02*
X193880000Y-151130000D01*
X191120000Y-148480000D02*
X193880000Y-148480000D01*
X191120000Y-148480000D02*
X191120000Y-151130000D01*
X191120000Y-151130000D02*
X193880000Y-151130000D01*
%TO.C,SW2*%
X155140000Y-138890000D02*
X165360000Y-138890000D01*
X165360000Y-141610000D01*
X155140000Y-141610000D01*
X155140000Y-138890000D01*
%TO.C,SW3*%
X190640000Y-139140000D02*
X200860000Y-139140000D01*
X200860000Y-141860000D01*
X190640000Y-141860000D01*
X190640000Y-139140000D01*
%TO.C,D4*%
X193940000Y-116101000D02*
X193940000Y-116420000D01*
X193940000Y-118580000D02*
X193940000Y-118899000D01*
X193940000Y-116101251D02*
G75*
G02*
X198243591Y-116420000I2060000J-1398749D01*
G01*
X194316670Y-116420000D02*
G75*
G02*
X197683330Y-116420000I1683330J-1080000D01*
G01*
X197683330Y-118580000D02*
G75*
G02*
X194316670Y-118580000I-1683330J1080000D01*
G01*
X198243591Y-118580000D02*
G75*
G02*
X193940000Y-118898749I-2243591J1080000D01*
G01*
%TO.C,J7*%
X165630000Y-151405000D02*
X164250000Y-151405000D01*
X165630000Y-150025000D02*
X165630000Y-151405000D01*
X162870000Y-148755000D02*
X162870000Y-146105000D01*
X165630000Y-148755000D02*
X162870000Y-148755000D01*
X165630000Y-148755000D02*
X165630000Y-146105000D01*
X165630000Y-146105000D02*
X162870000Y-146105000D01*
%TO.C,J5*%
X200670000Y-130620000D02*
X200670000Y-132000000D01*
X199290000Y-130620000D02*
X200670000Y-130620000D01*
X198020000Y-133380000D02*
X192830000Y-133380000D01*
X198020000Y-130620000D02*
X198020000Y-133380000D01*
X198020000Y-130620000D02*
X192830000Y-130620000D01*
X192830000Y-130620000D02*
X192830000Y-133380000D01*
%TO.C,SW1*%
X201610000Y-112610000D02*
X191390000Y-112610000D01*
X191390000Y-109890000D01*
X201610000Y-109890000D01*
X201610000Y-112610000D01*
%TO.C,R1*%
X162130000Y-69670000D02*
X158290000Y-69670000D01*
X162130000Y-67830000D02*
X158290000Y-67830000D01*
D11*
%TO.C,U3*%
X155500000Y-57155000D02*
X156500000Y-57155000D01*
X155500000Y-58355000D02*
X155500000Y-57155000D01*
X156500000Y-57155000D02*
X156500000Y-43355000D01*
X156500000Y-57155000D02*
X172500000Y-57155000D01*
X172500000Y-43355000D02*
X156500000Y-43355000D01*
X172500000Y-57155000D02*
X172500000Y-43355000D01*
X172500000Y-57155000D02*
X183500000Y-57155000D01*
X183500000Y-57155000D02*
X183500000Y-43355000D01*
X183500000Y-57155000D02*
X199500000Y-57155000D01*
X199500000Y-43355000D02*
X183500000Y-43355000D01*
X199500000Y-57155000D02*
X199500000Y-43355000D01*
X199500000Y-57155000D02*
X200500000Y-57155000D01*
X200500000Y-57155000D02*
X200500000Y-58355000D01*
X200500000Y-58355000D02*
X155500000Y-58355000D01*
D12*
%TO.C,D1*%
X157710000Y-73101000D02*
X157710000Y-73420000D01*
X157710000Y-75580000D02*
X157710000Y-75899000D01*
X157710000Y-73101251D02*
G75*
G02*
X162013591Y-73420000I2060000J-1398749D01*
G01*
X158086670Y-73420000D02*
G75*
G02*
X161453330Y-73420000I1683330J-1080000D01*
G01*
X161453330Y-75580000D02*
G75*
G02*
X158086670Y-75580000I-1683330J1080000D01*
G01*
X162013591Y-75580000D02*
G75*
G02*
X157710000Y-75898749I-2243591J1080000D01*
G01*
%TO.C,J3*%
X200380000Y-79870000D02*
X200380000Y-81250000D01*
X199000000Y-79870000D02*
X200380000Y-79870000D01*
X197730000Y-82630000D02*
X192540000Y-82630000D01*
X197730000Y-79870000D02*
X197730000Y-82630000D01*
X197730000Y-79870000D02*
X192540000Y-79870000D01*
X192540000Y-79870000D02*
X192540000Y-82630000D01*
%TO.C,R5*%
X170420000Y-63170000D02*
X166580000Y-63170000D01*
X170420000Y-61330000D02*
X166580000Y-61330000D01*
%TO.C,R6*%
X189420000Y-63420000D02*
X185580000Y-63420000D01*
X189420000Y-61580000D02*
X185580000Y-61580000D01*
%TO.C,R2*%
X197670000Y-69920000D02*
X193830000Y-69920000D01*
X197670000Y-68080000D02*
X193830000Y-68080000D01*
%TO.C,J2*%
X163380000Y-80870000D02*
X163380000Y-82250000D01*
X162000000Y-80870000D02*
X163380000Y-80870000D01*
X160730000Y-83630000D02*
X155540000Y-83630000D01*
X160730000Y-80870000D02*
X160730000Y-83630000D01*
X160730000Y-80870000D02*
X155540000Y-80870000D01*
X155540000Y-80870000D02*
X155540000Y-83630000D01*
%TO.C,R4*%
X197920000Y-126170000D02*
X194080000Y-126170000D01*
X197920000Y-124330000D02*
X194080000Y-124330000D01*
%TO.C,D2*%
X192920000Y-72601000D02*
X192920000Y-72920000D01*
X192920000Y-75080000D02*
X192920000Y-75399000D01*
X192920000Y-72601251D02*
G75*
G02*
X197223591Y-72920000I2060000J-1398749D01*
G01*
X193296670Y-72920000D02*
G75*
G02*
X196663330Y-72920000I1683330J-1080000D01*
G01*
X196663330Y-75080000D02*
G75*
G02*
X193296670Y-75080000I-1683330J1080000D01*
G01*
X197223591Y-75080000D02*
G75*
G02*
X192920000Y-75398749I-2243591J1080000D01*
G01*
%TO.C,D3*%
X157670000Y-116351000D02*
X157670000Y-116670000D01*
X157670000Y-118830000D02*
X157670000Y-119149000D01*
X157670000Y-116351251D02*
G75*
G02*
X161973591Y-116670000I2060000J-1398749D01*
G01*
X158046670Y-116670000D02*
G75*
G02*
X161413330Y-116670000I1683330J-1080000D01*
G01*
X161413330Y-118830000D02*
G75*
G02*
X158046670Y-118830000I-1683330J1080000D01*
G01*
X161973591Y-118830000D02*
G75*
G02*
X157670000Y-119148749I-2243591J1080000D01*
G01*
%TO.C,U4*%
X155840000Y-101350000D02*
X155840000Y-97590000D01*
X162660000Y-101350000D02*
X162660000Y-97590000D01*
X155840000Y-97590000D02*
X157100000Y-97590000D01*
X162660000Y-97590000D02*
X161400000Y-97590000D01*
X155940000Y-102630000D02*
X155610000Y-102870000D01*
X155610000Y-102390000D01*
X155940000Y-102630000D01*
G36*
X155940000Y-102630000D02*
G01*
X155610000Y-102870000D01*
X155610000Y-102390000D01*
X155940000Y-102630000D01*
G37*
%TO.C,R3*%
X161670000Y-126920000D02*
X157830000Y-126920000D01*
X161670000Y-125080000D02*
X157830000Y-125080000D01*
%TO.C,J4*%
X163420000Y-133880000D02*
X163420000Y-131120000D01*
X158230000Y-133880000D02*
X163420000Y-133880000D01*
X158230000Y-133880000D02*
X158230000Y-131120000D01*
X158230000Y-131120000D02*
X163420000Y-131120000D01*
X156960000Y-133880000D02*
X155580000Y-133880000D01*
X155580000Y-133880000D02*
X155580000Y-132500000D01*
D11*
%TO.C,U5*%
X165370000Y-71660000D02*
X190770000Y-71660000D01*
X165370000Y-134400000D02*
X165370000Y-71660000D01*
X190770000Y-71660000D02*
X190770000Y-134400000D01*
X190770000Y-134400000D02*
X165370000Y-134400000D01*
D13*
X164454000Y-73058000D02*
G75*
G02*
X164254000Y-73058000I-100000J0D01*
G01*
X164254000Y-73058000D02*
G75*
G02*
X164454000Y-73058000I100000J0D01*
G01*
D12*
%TO.C,J1*%
X195370000Y-105960000D02*
X198130000Y-105960000D01*
X195370000Y-88070000D02*
X195370000Y-105960000D01*
X195370000Y-88070000D02*
X198130000Y-88070000D01*
X198130000Y-88070000D02*
X198130000Y-105960000D01*
X195370000Y-86800000D02*
X195370000Y-85420000D01*
X195370000Y-85420000D02*
X196750000Y-85420000D01*
%TD*%
M02*
