%TF.GenerationSoftware,KiCad,Pcbnew,9.0.9*%
%TF.CreationDate,2026-06-28T10:34:42+05:30*%
%TF.ProjectId,MCU_Breakout,4d43555f-4272-4656-916b-6f75742e6b69,rev?*%
%TF.SameCoordinates,Original*%
%TF.FileFunction,Copper,L2,Bot*%
%TF.FilePolarity,Positive*%
%FSLAX46Y46*%
G04 Gerber Fmt 4.6, Leading zero omitted, Abs format (unit mm)*
G04 Created by KiCad (PCBNEW 9.0.9) date 2026-06-28 10:34:42*
%MOMM*%
%LPD*%
G01*
G04 APERTURE LIST*
%TA.AperFunction,ComponentPad*%
%ADD10C,1.905000*%
%TD*%
%TA.AperFunction,ComponentPad*%
%ADD11C,1.700000*%
%TD*%
%TA.AperFunction,ComponentPad*%
%ADD12R,1.700000X1.700000*%
%TD*%
%TA.AperFunction,ComponentPad*%
%ADD13C,1.600000*%
%TD*%
%TA.AperFunction,ComponentPad*%
%ADD14R,1.500000X1.500000*%
%TD*%
%TA.AperFunction,ComponentPad*%
%ADD15R,1.800000X1.800000*%
%TD*%
%TA.AperFunction,ComponentPad*%
%ADD16C,1.800000*%
%TD*%
%TA.AperFunction,ComponentPad*%
%ADD17C,1.400000*%
%TD*%
%TA.AperFunction,ComponentPad*%
%ADD18C,1.530000*%
%TD*%
%TA.AperFunction,ComponentPad*%
%ADD19R,1.530000X1.530000*%
%TD*%
%TA.AperFunction,ViaPad*%
%ADD20C,0.600000*%
%TD*%
%TA.AperFunction,Conductor*%
%ADD21C,0.200000*%
%TD*%
G04 APERTURE END LIST*
D10*
%TO.P,U2,XDA,XDA*%
%TO.N,unconnected-(U2-PadXDA)*%
X177230000Y-137420000D03*
%TO.P,U2,XCL,XCL*%
%TO.N,unconnected-(U2-PadXCL)*%
X174690000Y-137420000D03*
%TO.P,U2,VCC,VCC*%
%TO.N,/3.3V*%
X187390000Y-137420000D03*
%TO.P,U2,SDA,SDA*%
%TO.N,/SDA*%
X179770000Y-137420000D03*
%TO.P,U2,SCL,SCL*%
%TO.N,/SCL*%
X182310000Y-137420000D03*
%TO.P,U2,INT,INT*%
%TO.N,unconnected-(U2-PadINT)*%
X169610000Y-137420000D03*
%TO.P,U2,GND,GND*%
%TO.N,GND*%
X184850000Y-137420000D03*
%TO.P,U2,AD0,AD0*%
%TO.N,unconnected-(U2-PadAD0)*%
X172150000Y-137420000D03*
%TD*%
D11*
%TO.P,J6,2,Pin_2*%
%TO.N,GND*%
X192500000Y-149750000D03*
D12*
%TO.P,J6,1,Pin_1*%
%TO.N,/5V*%
X192500000Y-147210000D03*
%TD*%
D13*
%TO.P,SW2,3,C*%
%TO.N,unconnected-(SW2-C-Pad3)*%
X162790000Y-140250000D03*
%TO.P,SW2,2,B*%
%TO.N,/5V*%
X157710000Y-140250000D03*
D14*
%TO.P,SW2,1,A*%
%TO.N,/switch_signal*%
X160250000Y-140250000D03*
%TD*%
D13*
%TO.P,SW3,3,C*%
%TO.N,unconnected-(SW3-C-Pad3)*%
X198290000Y-140500000D03*
%TO.P,SW3,2,B*%
%TO.N,/5V*%
X193210000Y-140500000D03*
D14*
%TO.P,SW3,1,A*%
%TO.N,/switch_signal*%
X195750000Y-140500000D03*
%TD*%
D15*
%TO.P,D4,1,K*%
%TO.N,GND*%
X194730000Y-117500000D03*
D16*
%TO.P,D4,2,A*%
%TO.N,Net-(D4-A)*%
X197270000Y-117500000D03*
%TD*%
D12*
%TO.P,J7,1,Pin_1*%
%TO.N,/switch_signal*%
X164250000Y-150025000D03*
D11*
%TO.P,J7,2,Pin_2*%
%TO.N,GND*%
X164250000Y-147485000D03*
%TD*%
D12*
%TO.P,J5,1,Pin_1*%
%TO.N,/S4*%
X199290000Y-132000000D03*
D11*
%TO.P,J5,2,Pin_2*%
%TO.N,/5V*%
X196750000Y-132000000D03*
%TO.P,J5,3,Pin_3*%
%TO.N,GND*%
X194210000Y-132000000D03*
%TD*%
D14*
%TO.P,SW1,1,A*%
%TO.N,/switch_signal*%
X196500000Y-111250000D03*
D13*
%TO.P,SW1,2,B*%
%TO.N,/5V*%
X199040000Y-111250000D03*
%TO.P,SW1,3,C*%
%TO.N,unconnected-(SW1-C-Pad3)*%
X193960000Y-111250000D03*
%TD*%
D17*
%TO.P,R1,1*%
%TO.N,/LED1*%
X162750000Y-68750000D03*
%TO.P,R1,2*%
%TO.N,Net-(D1-A)*%
X157670000Y-68750000D03*
%TD*%
D18*
%TO.P,U3,1,VCC*%
%TO.N,/5V*%
X181810000Y-62625000D03*
%TO.P,U3,2,TRIG*%
%TO.N,/TRIG*%
X179270000Y-62625000D03*
%TO.P,U3,3,ECHO*%
%TO.N,Net-(U3-ECHO)*%
X176730000Y-62625000D03*
%TO.P,U3,4,GND*%
%TO.N,GND*%
X174190000Y-62625000D03*
%TD*%
D15*
%TO.P,D1,1,K*%
%TO.N,GND*%
X158500000Y-74500000D03*
D16*
%TO.P,D1,2,A*%
%TO.N,Net-(D1-A)*%
X161040000Y-74500000D03*
%TD*%
D12*
%TO.P,J3,1,Pin_1*%
%TO.N,/S2*%
X199000000Y-81250000D03*
D11*
%TO.P,J3,2,Pin_2*%
%TO.N,/5V*%
X196460000Y-81250000D03*
%TO.P,J3,3,Pin_3*%
%TO.N,GND*%
X193920000Y-81250000D03*
%TD*%
D17*
%TO.P,R5,1*%
%TO.N,/ECHO*%
X171040000Y-62250000D03*
%TO.P,R5,2*%
%TO.N,Net-(U3-ECHO)*%
X165960000Y-62250000D03*
%TD*%
%TO.P,R6,1*%
%TO.N,GND*%
X190040000Y-62500000D03*
%TO.P,R6,2*%
%TO.N,/ECHO*%
X184960000Y-62500000D03*
%TD*%
%TO.P,R2,1*%
%TO.N,/LED2*%
X198290000Y-69000000D03*
%TO.P,R2,2*%
%TO.N,Net-(D2-A)*%
X193210000Y-69000000D03*
%TD*%
D12*
%TO.P,J2,1,Pin_1*%
%TO.N,/S1*%
X162000000Y-82250000D03*
D11*
%TO.P,J2,2,Pin_2*%
%TO.N,/5V*%
X159460000Y-82250000D03*
%TO.P,J2,3,Pin_3*%
%TO.N,GND*%
X156920000Y-82250000D03*
%TD*%
D17*
%TO.P,R4,1*%
%TO.N,/LED4*%
X198540000Y-125250000D03*
%TO.P,R4,2*%
%TO.N,Net-(D4-A)*%
X193460000Y-125250000D03*
%TD*%
D15*
%TO.P,D2,1,K*%
%TO.N,GND*%
X193710000Y-74000000D03*
D16*
%TO.P,D2,2,A*%
%TO.N,Net-(D2-A)*%
X196250000Y-74000000D03*
%TD*%
D15*
%TO.P,D3,1,K*%
%TO.N,GND*%
X158460000Y-117750000D03*
D16*
%TO.P,D3,2,A*%
%TO.N,Net-(D3-A)*%
X161000000Y-117750000D03*
%TD*%
D17*
%TO.P,R3,1*%
%TO.N,/LED3*%
X162290000Y-126000000D03*
%TO.P,R3,2*%
%TO.N,Net-(D3-A)*%
X157210000Y-126000000D03*
%TD*%
D12*
%TO.P,J4,1,Pin_1*%
%TO.N,/S3*%
X156960000Y-132500000D03*
D11*
%TO.P,J4,2,Pin_2*%
%TO.N,/5V*%
X159500000Y-132500000D03*
%TO.P,J4,3,Pin_3*%
%TO.N,GND*%
X162040000Y-132500000D03*
%TD*%
D19*
%TO.P,U5,J1_1,3V3*%
%TO.N,/3.3V*%
X166640000Y-73060000D03*
D18*
%TO.P,U5,J1_2,GPIO0*%
%TO.N,unconnected-(U5-GPIO0-PadJ1_2)*%
X166640000Y-75600000D03*
%TO.P,U5,J1_3,GPIO1*%
%TO.N,/S1*%
X166640000Y-78140000D03*
%TO.P,U5,J1_4,GPIO2*%
%TO.N,/S2*%
X166640000Y-80680000D03*
%TO.P,U5,J1_5,GPIO3*%
%TO.N,/S3*%
X166640000Y-83220000D03*
%TO.P,U5,J1_6,GPIO4*%
%TO.N,/S4*%
X166640000Y-85760000D03*
%TO.P,U5,J1_7,GPIO5*%
%TO.N,/TRIG*%
X166640000Y-88300000D03*
%TO.P,U5,J1_8,GPIO6*%
%TO.N,/ECHO*%
X166640000Y-90840000D03*
%TO.P,U5,J1_9,GPIO7*%
%TO.N,unconnected-(U5-GPIO7-PadJ1_9)*%
X166640000Y-93380000D03*
%TO.P,U5,J1_10,GPIO8*%
%TO.N,/SDA*%
X166640000Y-95920000D03*
%TO.P,U5,J1_11,GPIO9*%
%TO.N,/SCL*%
X166640000Y-98460000D03*
%TO.P,U5,J1_12,GPIO10*%
%TO.N,unconnected-(U5-GPIO10-PadJ1_12)*%
X166640000Y-101000000D03*
%TO.P,U5,J1_13,GPIO11*%
%TO.N,/LED1*%
X166640000Y-103540000D03*
%TO.P,U5,J1_14,GPIO12*%
%TO.N,/LED2*%
X166640000Y-106080000D03*
%TO.P,U5,J1_15,GPIO13*%
%TO.N,/LED3*%
X166640000Y-108620000D03*
%TO.P,U5,J1_16,GPIO14*%
%TO.N,/LED4*%
X166640000Y-111160000D03*
%TO.P,U5,J1_17,GPIO15*%
%TO.N,unconnected-(U5-GPIO15-PadJ1_17)*%
X166640000Y-113700000D03*
%TO.P,U5,J1_18,GPIO16*%
%TO.N,unconnected-(U5-GPIO16-PadJ1_18)*%
X166640000Y-116240000D03*
%TO.P,U5,J1_19,GPIO17*%
%TO.N,unconnected-(U5-GPIO17-PadJ1_19)*%
X166640000Y-118780000D03*
%TO.P,U5,J1_20,GPIO18*%
%TO.N,unconnected-(U5-GPIO18-PadJ1_20)*%
X166640000Y-121320000D03*
%TO.P,U5,J1_21,5V0*%
%TO.N,unconnected-(U5-5V0-PadJ1_21)*%
X166640000Y-123860000D03*
%TO.P,U5,J1_22,GND_J1_22*%
%TO.N,GND*%
X166640000Y-126400000D03*
%TO.P,U5,J3_1,GND_J3_1*%
%TO.N,unconnected-(U5-GND_J3_1-PadJ3_1)*%
X189500000Y-73060000D03*
%TO.P,U5,J3_2,RST*%
%TO.N,unconnected-(U5-RST-PadJ3_2)*%
X189500000Y-75600000D03*
%TO.P,U5,J3_3,GPIO46*%
%TO.N,/GPIO46*%
X189500000Y-78140000D03*
%TO.P,U5,J3_4,GPIO45*%
%TO.N,/GPIO45*%
X189500000Y-80680000D03*
%TO.P,U5,J3_5,U0RXD*%
%TO.N,unconnected-(U5-U0RXD-PadJ3_5)*%
X189500000Y-83220000D03*
%TO.P,U5,J3_6,U0TXD*%
%TO.N,unconnected-(U5-U0TXD-PadJ3_6)*%
X189500000Y-85760000D03*
%TO.P,U5,J3_7,GPIO42*%
%TO.N,/GPIO42*%
X189500000Y-88300000D03*
%TO.P,U5,J3_8,GPIO41*%
%TO.N,/GPIO41*%
X189500000Y-90840000D03*
%TO.P,U5,J3_9,GPIO40*%
%TO.N,/GPIO40*%
X189500000Y-93380000D03*
%TO.P,U5,J3_10,GPIO39*%
%TO.N,/GPIO39*%
X189500000Y-95920000D03*
%TO.P,U5,J3_11,GPIO38*%
%TO.N,unconnected-(U5-GPIO38-PadJ3_11)*%
X189500000Y-98460000D03*
%TO.P,U5,J3_12,GPIO37*%
%TO.N,unconnected-(U5-GPIO37-PadJ3_12)*%
X189500000Y-101000000D03*
%TO.P,U5,J3_13,GPIO36*%
%TO.N,unconnected-(U5-GPIO36-PadJ3_13)*%
X189500000Y-103540000D03*
%TO.P,U5,J3_14,GPIO35*%
%TO.N,unconnected-(U5-GPIO35-PadJ3_14)*%
X189500000Y-106080000D03*
%TO.P,U5,J3_15,GPIO34*%
%TO.N,unconnected-(U5-GPIO34-PadJ3_15)*%
X189500000Y-108620000D03*
%TO.P,U5,J3_16,GPIO33*%
%TO.N,unconnected-(U5-GPIO33-PadJ3_16)*%
X189500000Y-111160000D03*
%TO.P,U5,J3_17,GPIO26*%
%TO.N,unconnected-(U5-GPIO26-PadJ3_17)*%
X189500000Y-113700000D03*
%TO.P,U5,J3_18,GPIO21*%
%TO.N,unconnected-(U5-GPIO21-PadJ3_18)*%
X189500000Y-116240000D03*
%TO.P,U5,J3_19,GPIO20*%
%TO.N,unconnected-(U5-GPIO20-PadJ3_19)*%
X189500000Y-118780000D03*
%TO.P,U5,J3_20,GPIO19*%
%TO.N,unconnected-(U5-GPIO19-PadJ3_20)*%
X189500000Y-121320000D03*
%TO.P,U5,J3_21,GPIO48*%
%TO.N,/GPIO48*%
X189500000Y-123860000D03*
%TO.P,U5,J3_22,GPIO47*%
%TO.N,/GPIO47*%
X189500000Y-126400000D03*
%TD*%
D12*
%TO.P,J1,1,Pin_1*%
%TO.N,/GPIO39*%
X196750000Y-86800000D03*
D11*
%TO.P,J1,2,Pin_2*%
%TO.N,/GPIO40*%
X196750000Y-89340000D03*
%TO.P,J1,3,Pin_3*%
%TO.N,/GPIO41*%
X196750000Y-91880000D03*
%TO.P,J1,4,Pin_4*%
%TO.N,/GPIO42*%
X196750000Y-94420000D03*
%TO.P,J1,5,Pin_5*%
%TO.N,/GPIO45*%
X196750000Y-96960000D03*
%TO.P,J1,6,Pin_6*%
%TO.N,/GPIO46*%
X196750000Y-99500000D03*
%TO.P,J1,7,Pin_7*%
%TO.N,/GPIO47*%
X196750000Y-102040000D03*
%TO.P,J1,8,Pin_8*%
%TO.N,/GPIO48*%
X196750000Y-104580000D03*
%TD*%
D20*
%TO.N,/5V*%
X181040166Y-61040166D03*
X183000000Y-61500000D03*
%TD*%
D21*
%TO.N,/5V*%
X175959834Y-61040166D02*
X181040166Y-61040166D01*
X175035569Y-61964431D02*
X175959834Y-61040166D01*
X175255000Y-62183862D02*
X175035569Y-61964431D01*
X154970000Y-127970000D02*
X159500000Y-132500000D01*
X154970000Y-74408681D02*
X154970000Y-127970000D01*
X162028680Y-67350000D02*
X154970000Y-74408681D01*
X167958862Y-67350000D02*
X162028680Y-67350000D01*
X173748862Y-61560000D02*
X167958862Y-67350000D01*
X174631138Y-61560000D02*
X173748862Y-61560000D01*
X175035569Y-61964431D02*
X174631138Y-61560000D01*
X175255000Y-63066138D02*
X175255000Y-62183862D01*
X168171138Y-70150000D02*
X175255000Y-63066138D01*
X163415686Y-70150000D02*
X168171138Y-70150000D01*
X159700000Y-73865686D02*
X163415686Y-70150000D01*
X159700000Y-82010000D02*
X159700000Y-73865686D01*
X159460000Y-82250000D02*
X159700000Y-82010000D01*
%TO.N,/S4*%
X164000000Y-77383654D02*
X163350000Y-76733654D01*
X164000000Y-82500000D02*
X164000000Y-77383654D01*
X161343654Y-85156346D02*
X164000000Y-82500000D01*
X161343654Y-85760000D02*
X161343654Y-85156346D01*
%TO.N,GND*%
X174190000Y-62625000D02*
X167065000Y-69750000D01*
%TO.N,/5V*%
X183935000Y-60565000D02*
X183000000Y-61500000D01*
X194750000Y-63500000D02*
X191750000Y-60500000D01*
X198750000Y-66500000D02*
X194750000Y-66500000D01*
X200000000Y-67750000D02*
X198750000Y-66500000D01*
X194750000Y-66500000D02*
X194750000Y-63500000D01*
X191750000Y-60500000D02*
X183935000Y-60500000D01*
X183935000Y-60500000D02*
X183935000Y-60565000D01*
X200000000Y-77710000D02*
X200000000Y-67750000D01*
X196460000Y-81250000D02*
X200000000Y-77710000D01*
%TO.N,GND*%
X159660000Y-118950000D02*
X158460000Y-117750000D01*
X161497057Y-118950000D02*
X159660000Y-118950000D01*
X162200000Y-114010000D02*
X162200000Y-118247057D01*
X167081138Y-109685000D02*
X166525000Y-109685000D01*
X167705000Y-109061138D02*
X167081138Y-109685000D01*
X167705000Y-108178862D02*
X167705000Y-109061138D01*
X167081138Y-107555000D02*
X167705000Y-108178862D01*
X166198862Y-107555000D02*
X167081138Y-107555000D01*
X155370000Y-96726138D02*
X166198862Y-107555000D01*
X155370000Y-74574366D02*
X155370000Y-96726138D01*
X162194366Y-67750000D02*
X155370000Y-74574366D01*
X163164214Y-67750000D02*
X162194366Y-67750000D01*
X163750000Y-68335786D02*
X163164214Y-67750000D01*
X163750000Y-69164214D02*
X163750000Y-68335786D01*
X162200000Y-118247057D02*
X161497057Y-118950000D01*
X156920000Y-75994214D02*
X163750000Y-69164214D01*
X156920000Y-82250000D02*
X156920000Y-75994214D01*
X166525000Y-109685000D02*
X162200000Y-114010000D01*
%TO.N,/S4*%
X161343654Y-85760000D02*
X166640000Y-85760000D01*
X163350000Y-70834315D02*
X163350000Y-76733654D01*
X163584315Y-70600000D02*
X163350000Y-70834315D01*
X173269314Y-70600000D02*
X163584315Y-70600000D01*
X180745000Y-63124314D02*
X173269314Y-70600000D01*
X180745000Y-62183862D02*
X180745000Y-63124314D01*
X192915685Y-60100000D02*
X182828862Y-60100000D01*
X182828862Y-60100000D02*
X180745000Y-62183862D01*
X201150000Y-68334315D02*
X192915685Y-60100000D01*
X201150000Y-130140000D02*
X201150000Y-68334315D01*
X199290000Y-132000000D02*
X201150000Y-130140000D01*
%TO.N,Net-(D4-A)*%
X197270000Y-121440000D02*
X193460000Y-125250000D01*
X197270000Y-117500000D02*
X197270000Y-121440000D01*
%TO.N,/LED3*%
X156210000Y-126414214D02*
X156210000Y-117034315D01*
X164624315Y-108620000D02*
X166640000Y-108620000D01*
X161290000Y-127000000D02*
X156795786Y-127000000D01*
X162290000Y-126000000D02*
X161290000Y-127000000D01*
X156795786Y-127000000D02*
X156210000Y-126414214D01*
X156210000Y-117034315D02*
X164624315Y-108620000D01*
%TO.N,Net-(D3-A)*%
X159800000Y-116550000D02*
X161000000Y-117750000D01*
X157210000Y-116600000D02*
X157260000Y-116550000D01*
X157260000Y-116550000D02*
X159800000Y-116550000D01*
X157210000Y-126000000D02*
X157210000Y-116600000D01*
%TO.N,/LED2*%
X167705000Y-105015000D02*
X166640000Y-106080000D01*
X184441138Y-61500000D02*
X167705000Y-78236138D01*
X190454214Y-61500000D02*
X184441138Y-61500000D01*
X192650000Y-64965685D02*
X192650000Y-63695786D01*
X192650000Y-63695786D02*
X190454214Y-61500000D01*
X196684315Y-69000000D02*
X192650000Y-64965685D01*
X167705000Y-78236138D02*
X167705000Y-105015000D01*
X198290000Y-69000000D02*
X196684315Y-69000000D01*
%TO.N,/LED1*%
X155770000Y-92670000D02*
X166640000Y-103540000D01*
X155770000Y-74740051D02*
X155770000Y-92670000D01*
X161760051Y-68750000D02*
X155770000Y-74740051D01*
X162750000Y-68750000D02*
X161760051Y-68750000D01*
%TO.N,/5V*%
X159500000Y-138460000D02*
X157710000Y-140250000D01*
X159500000Y-132500000D02*
X159500000Y-138460000D01*
X199040000Y-111250000D02*
X199040000Y-83830000D01*
X199040000Y-83830000D02*
X196460000Y-81250000D01*
X200750000Y-127250000D02*
X200750000Y-112960000D01*
X196750000Y-131250000D02*
X200750000Y-127250000D01*
X200750000Y-112960000D02*
X199040000Y-111250000D01*
X196750000Y-132000000D02*
X196750000Y-131250000D01*
X196750000Y-134000000D02*
X196750000Y-132000000D01*
X193210000Y-137540000D02*
X196750000Y-134000000D01*
X193210000Y-140500000D02*
X193210000Y-137540000D01*
X192500000Y-141210000D02*
X193210000Y-140500000D01*
X192500000Y-147210000D02*
X192500000Y-141210000D01*
%TO.N,GND*%
X158500000Y-80670000D02*
X156920000Y-82250000D01*
X158500000Y-74500000D02*
X158500000Y-80670000D01*
X167065000Y-69750000D02*
X163250000Y-69750000D01*
X163250000Y-69750000D02*
X158500000Y-74500000D01*
X192210000Y-72500000D02*
X193710000Y-74000000D01*
X192210000Y-64790000D02*
X192210000Y-72500000D01*
X192250000Y-64750000D02*
X192210000Y-64790000D01*
X192250000Y-64710000D02*
X192250000Y-64750000D01*
X190040000Y-62500000D02*
X192250000Y-64710000D01*
X194500000Y-117500000D02*
X194730000Y-117500000D01*
X192860000Y-115860000D02*
X194500000Y-117500000D01*
X192860000Y-82310000D02*
X192860000Y-115860000D01*
X193920000Y-81250000D02*
X192860000Y-82310000D01*
X193710000Y-74000000D02*
X193710000Y-81040000D01*
X193710000Y-81040000D02*
X193920000Y-81250000D01*
X192000000Y-120230000D02*
X192000000Y-129790000D01*
X194730000Y-117500000D02*
X192000000Y-120230000D01*
X192000000Y-129790000D02*
X194210000Y-132000000D01*
X190270000Y-132000000D02*
X184850000Y-137420000D01*
X194210000Y-132000000D02*
X190270000Y-132000000D01*
X184850000Y-142100000D02*
X184850000Y-137420000D01*
X192500000Y-149750000D02*
X184850000Y-142100000D01*
X162040000Y-134290000D02*
X162040000Y-132500000D01*
X167000000Y-139250000D02*
X162040000Y-134290000D01*
X165000000Y-142500000D02*
X167000000Y-142500000D01*
X164250000Y-143250000D02*
X165000000Y-142500000D01*
X164250000Y-147485000D02*
X164250000Y-143250000D01*
X167000000Y-142500000D02*
X167000000Y-139250000D01*
X158460000Y-118220000D02*
X166640000Y-126400000D01*
X158460000Y-117750000D02*
X158460000Y-118220000D01*
X184850000Y-137420000D02*
X175180000Y-127750000D01*
X166640000Y-127750000D02*
X166640000Y-126400000D01*
X175180000Y-127750000D02*
X166640000Y-127750000D01*
X166640000Y-127900000D02*
X166640000Y-127750000D01*
X162040000Y-132500000D02*
X166640000Y-127900000D01*
%TD*%
M02*
