%TF.GenerationSoftware,KiCad,Pcbnew,9.0.9*%
%TF.CreationDate,2026-06-28T10:34:42+05:30*%
%TF.ProjectId,MCU_Breakout,4d43555f-4272-4656-916b-6f75742e6b69,rev?*%
%TF.SameCoordinates,Original*%
%TF.FileFunction,Soldermask,Top*%
%TF.FilePolarity,Negative*%
%FSLAX46Y46*%
G04 Gerber Fmt 4.6, Leading zero omitted, Abs format (unit mm)*
G04 Created by KiCad (PCBNEW 9.0.9) date 2026-06-28 10:34:42*
%MOMM*%
%LPD*%
G01*
G04 APERTURE LIST*
G04 Aperture macros list*
%AMRoundRect*
0 Rectangle with rounded corners*
0 $1 Rounding radius*
0 $2 $3 $4 $5 $6 $7 $8 $9 X,Y pos of 4 corners*
0 Add a 4 corners polygon primitive as box body*
4,1,4,$2,$3,$4,$5,$6,$7,$8,$9,$2,$3,0*
0 Add four circle primitives for the rounded corners*
1,1,$1+$1,$2,$3*
1,1,$1+$1,$4,$5*
1,1,$1+$1,$6,$7*
1,1,$1+$1,$8,$9*
0 Add four rect primitives between the rounded corners*
20,1,$1+$1,$2,$3,$4,$5,0*
20,1,$1+$1,$4,$5,$6,$7,0*
20,1,$1+$1,$6,$7,$8,$9,0*
20,1,$1+$1,$8,$9,$2,$3,0*%
G04 Aperture macros list end*
%ADD10C,2.700000*%
%ADD11C,2.109000*%
%ADD12C,3.200000*%
%ADD13R,2.000000X1.600000*%
%ADD14C,1.700000*%
%ADD15R,1.700000X1.700000*%
%ADD16C,1.600000*%
%ADD17R,1.500000X1.500000*%
%ADD18R,1.800000X1.800000*%
%ADD19C,1.800000*%
%ADD20C,1.400000*%
%ADD21C,1.734000*%
%ADD22RoundRect,0.375000X0.375000X-0.625000X0.375000X0.625000X-0.375000X0.625000X-0.375000X-0.625000X0*%
%ADD23RoundRect,0.500000X1.400000X-0.500000X1.400000X0.500000X-1.400000X0.500000X-1.400000X-0.500000X0*%
%ADD24RoundRect,0.102000X-0.765000X-0.765000X0.765000X-0.765000X0.765000X0.765000X-0.765000X0.765000X0*%
G04 APERTURE END LIST*
D10*
%TO.C,REF\u002A\u002A*%
X198500000Y-62750000D03*
%TD*%
D11*
%TO.C,U2*%
X177230000Y-137420000D03*
X174690000Y-137420000D03*
X187390000Y-137420000D03*
X179770000Y-137420000D03*
X182310000Y-137420000D03*
X169610000Y-137420000D03*
X184850000Y-137420000D03*
X172150000Y-137420000D03*
D12*
X170440000Y-149180000D03*
X186560000Y-149180000D03*
%TD*%
D13*
%TO.C,C2*%
X156500000Y-109250000D03*
X162500000Y-109250000D03*
%TD*%
%TO.C,C1*%
X156500000Y-89250000D03*
X162500000Y-89250000D03*
%TD*%
D10*
%TO.C,REF\u002A\u002A*%
X157500000Y-62750000D03*
%TD*%
%TO.C,REF\u002A\u002A*%
X198250000Y-148250000D03*
%TD*%
%TO.C,REF\u002A\u002A*%
X158500000Y-148500000D03*
%TD*%
D14*
%TO.C,J6*%
X192500000Y-149750000D03*
D15*
X192500000Y-147210000D03*
%TD*%
D16*
%TO.C,SW2*%
X162790000Y-140250000D03*
X157710000Y-140250000D03*
D17*
X160250000Y-140250000D03*
%TD*%
D16*
%TO.C,SW3*%
X198290000Y-140500000D03*
X193210000Y-140500000D03*
D17*
X195750000Y-140500000D03*
%TD*%
D18*
%TO.C,D4*%
X194730000Y-117500000D03*
D19*
X197270000Y-117500000D03*
%TD*%
D15*
%TO.C,J7*%
X164250000Y-150025000D03*
D14*
X164250000Y-147485000D03*
%TD*%
D15*
%TO.C,J5*%
X199290000Y-132000000D03*
D14*
X196750000Y-132000000D03*
X194210000Y-132000000D03*
%TD*%
D17*
%TO.C,SW1*%
X196500000Y-111250000D03*
D16*
X199040000Y-111250000D03*
X193960000Y-111250000D03*
%TD*%
D20*
%TO.C,R1*%
X162750000Y-68750000D03*
X157670000Y-68750000D03*
%TD*%
D21*
%TO.C,U3*%
X181810000Y-62625000D03*
X179270000Y-62625000D03*
X176730000Y-62625000D03*
X174190000Y-62625000D03*
%TD*%
D18*
%TO.C,D1*%
X158500000Y-74500000D03*
D19*
X161040000Y-74500000D03*
%TD*%
D15*
%TO.C,J3*%
X199000000Y-81250000D03*
D14*
X196460000Y-81250000D03*
X193920000Y-81250000D03*
%TD*%
D20*
%TO.C,R5*%
X171040000Y-62250000D03*
X165960000Y-62250000D03*
%TD*%
%TO.C,R6*%
X190040000Y-62500000D03*
X184960000Y-62500000D03*
%TD*%
%TO.C,R2*%
X198290000Y-69000000D03*
X193210000Y-69000000D03*
%TD*%
D15*
%TO.C,J2*%
X162000000Y-82250000D03*
D14*
X159460000Y-82250000D03*
X156920000Y-82250000D03*
%TD*%
D20*
%TO.C,R4*%
X198540000Y-125250000D03*
X193460000Y-125250000D03*
%TD*%
D18*
%TO.C,D2*%
X193710000Y-74000000D03*
D19*
X196250000Y-74000000D03*
%TD*%
D18*
%TO.C,D3*%
X158460000Y-117750000D03*
D19*
X161000000Y-117750000D03*
%TD*%
D22*
%TO.C,U4*%
X156950000Y-102650000D03*
X159250000Y-102650000D03*
D23*
X159250000Y-96350000D03*
D22*
X161550000Y-102650000D03*
%TD*%
D20*
%TO.C,R3*%
X162290000Y-126000000D03*
X157210000Y-126000000D03*
%TD*%
D15*
%TO.C,J4*%
X156960000Y-132500000D03*
D14*
X159500000Y-132500000D03*
X162040000Y-132500000D03*
%TD*%
D24*
%TO.C,U5*%
X166640000Y-73060000D03*
D21*
X166640000Y-75600000D03*
X166640000Y-78140000D03*
X166640000Y-80680000D03*
X166640000Y-83220000D03*
X166640000Y-85760000D03*
X166640000Y-88300000D03*
X166640000Y-90840000D03*
X166640000Y-93380000D03*
X166640000Y-95920000D03*
X166640000Y-98460000D03*
X166640000Y-101000000D03*
X166640000Y-103540000D03*
X166640000Y-106080000D03*
X166640000Y-108620000D03*
X166640000Y-111160000D03*
X166640000Y-113700000D03*
X166640000Y-116240000D03*
X166640000Y-118780000D03*
X166640000Y-121320000D03*
X166640000Y-123860000D03*
X166640000Y-126400000D03*
X189500000Y-73060000D03*
X189500000Y-75600000D03*
X189500000Y-78140000D03*
X189500000Y-80680000D03*
X189500000Y-83220000D03*
X189500000Y-85760000D03*
X189500000Y-88300000D03*
X189500000Y-90840000D03*
X189500000Y-93380000D03*
X189500000Y-95920000D03*
X189500000Y-98460000D03*
X189500000Y-101000000D03*
X189500000Y-103540000D03*
X189500000Y-106080000D03*
X189500000Y-108620000D03*
X189500000Y-111160000D03*
X189500000Y-113700000D03*
X189500000Y-116240000D03*
X189500000Y-118780000D03*
X189500000Y-121320000D03*
X189500000Y-123860000D03*
X189500000Y-126400000D03*
%TD*%
D15*
%TO.C,J1*%
X196750000Y-86800000D03*
D14*
X196750000Y-89340000D03*
X196750000Y-91880000D03*
X196750000Y-94420000D03*
X196750000Y-96960000D03*
X196750000Y-99500000D03*
X196750000Y-102040000D03*
X196750000Y-104580000D03*
%TD*%
M02*
